<?xml version="1.0" encoding="UTF-8" standalone="no"?>
<!-- Created with Inkscape (http://www.inkscape.org/) -->

<svg
   width="210mm"
   height="297mm"
   viewBox="0 0 210 297"
   version="1.1"
   id="svg1"
   inkscape:version="1.4 (86a8ad7, 2024-10-11)"
   sodipodi:docname="IHC - Logo.svg"
   xmlns:inkscape="http://www.inkscape.org/namespaces/inkscape"
   xmlns:sodipodi="http://sodipodi.sourceforge.net/DTD/sodipodi-0.dtd"
   xmlns:xlink="http://www.w3.org/1999/xlink"
   xmlns="http://www.w3.org/2000/svg"
   xmlns:svg="http://www.w3.org/2000/svg">
  <sodipodi:namedview
     id="namedview1"
     pagecolor="#ffffff"
     bordercolor="#000000"
     borderopacity="0.25"
     inkscape:showpageshadow="2"
     inkscape:pageopacity="0.0"
     inkscape:pagecheckerboard="0"
     inkscape:deskcolor="#d1d1d1"
     inkscape:document-units="mm"
     inkscape:zoom="0.32"
     inkscape:cx="-714.0625"
     inkscape:cy="-1.5625"
     inkscape:window-width="1920"
     inkscape:window-height="991"
     inkscape:window-x="-9"
     inkscape:window-y="-9"
     inkscape:window-maximized="1"
     inkscape:current-layer="layer1" />
  <defs
     id="defs1">
    <linearGradient
       id="linearGradient95"
       inkscape:collect="always">
      <stop
         style="stop-color:#6cdcd1;stop-opacity:0.21372034;"
         offset="0"
         id="stop95" />
      <stop
         style="stop-color:#6cdcd1;stop-opacity:0;"
         offset="1"
         id="stop96" />
    </linearGradient>
    <rect
       x="10.16512"
       y="119.07712"
       width="213.46752"
       height="13.06944"
       id="rect2" />
    <rect
       x="107.45984"
       y="94.3904"
       width="823.59669"
       height="419.93376"
       id="rect1" />
    <rect
       x="107.45984"
       y="94.390404"
       width="654.16933"
       height="134.47442"
       id="rect1-4" />
    <rect
       x="107.45984"
       y="94.390404"
       width="580.23745"
       height="261.8016"
       id="rect1-5" />
    <rect
       x="107.45984"
       y="94.390404"
       width="582.29111"
       height="338.81402"
       id="rect1-52" />
    <rect
       x="107.45984"
       y="94.390404"
       width="169.50459"
       height="72.86449"
       id="rect1-52-3" />
    <rect
       x="107.45984"
       y="94.390404"
       width="235.22181"
       height="63.622995"
       id="rect1-5-7" />
    <rect
       x="107.45984"
       y="94.390404"
       width="821.543"
       height="320.33105"
       id="rect1-5-74" />
    <rect
       x="107.45984"
       y="94.390404"
       width="196.32428"
       height="99.685405"
       id="rect1-5-74-9" />
    <rect
       x="107.45984"
       y="94.390404"
       width="165.33966"
       height="49.829244"
       id="rect1-4-6" />
    <linearGradient
       inkscape:collect="always"
       xlink:href="#linearGradient95"
       id="linearGradient96"
       x1="117.05898"
       y1="145.51063"
       x2="736.16299"
       y2="145.51063"
       gradientUnits="userSpaceOnUse" />
  </defs>
  <g
     inkscape:label="Camada 1"
     inkscape:groupmode="layer"
     id="layer1">
    <rect
       style="fill:#ebebeb;fill-opacity:1;stroke-width:0.3;stroke-dasharray:none"
       id="rect101"
       width="237.29817"
       height="320.80728"
       x="-2.2737629"
       y="-17.363279" />
    <text
       xml:space="preserve"
       transform="matrix(0.25010187,0,0,0.35948247,-13.930744,-29.537801)"
       id="text1-8"
       style="font-size:96px;text-align:start;writing-mode:lr-tb;direction:ltr;white-space:pre;shape-inside:url(#rect1-4);fill:#365b6d;fill-opacity:1;stroke-width:1.00051575;stroke-dasharray:none"><tspan
         x="107.45898"
         y="183.19063"
         id="tspan5"><tspan
           style="font-family:'Baou Test';-inkscape-font-specification:'Baou Test'"
           id="tspan4">Potiteca</tspan></tspan></text>
    <text
       xml:space="preserve"
       transform="matrix(0.25010187,0,0,0.35948247,138.14291,2.7847591)"
       id="text1-8-2"
       style="font-size:37.649px;text-align:start;writing-mode:lr-tb;direction:ltr;white-space:pre;shape-inside:url(#rect1-4-6);fill:#365b6d;fill-opacity:1"><tspan
         x="107.45898"
         y="129.21595"
         id="tspan7"><tspan
           style="font-family:'Baou Test';-inkscape-font-specification:'Baou Test'"
           id="tspan6">Baou</tspan></tspan></text>
    <text
       xml:space="preserve"
       transform="matrix(0.26458333,0,0,0.26458333,-14.170426,98.426608)"
       id="text1-1"
       style="font-style:normal;font-variant:normal;font-weight:bold;font-stretch:normal;font-size:192px;font-family:'Mayan Square';-inkscape-font-specification:'Mayan Square Bold';text-align:start;writing-mode:lr-tb;direction:ltr;white-space:pre;shape-inside:url(#rect1-5);display:inline;fill:#365b6d;fill-opacity:1"><tspan
         x="107.45898"
         y="262.39062"
         id="tspan8">Potiteca</tspan></text>
    <path
       d="m 138.81478,70.434461 c -2.19408,0 -4.10359,0.447413 -5.72884,1.34152 -1.62525,0.865264 -2.97982,2.047795 -4.06332,3.547587 -1.05642,1.47095 -1.85501,3.18674 -2.39676,5.148006 -0.51466,1.932424 -0.77204,3.980133 -0.77204,6.143294 0,2.393899 0.28434,4.586235 0.85318,6.576343 0.56883,1.990108 1.43559,3.691849 2.60035,5.105115 1.16477,1.413265 2.61394,2.508914 4.34754,3.287654 1.76069,0.77874 3.81924,1.1684 6.17585,1.1684 h 11.13317 c 0.59593,0 1.01557,-0.1878 1.25936,-0.56275 0.27087,-0.37495 0.40618,-0.86503 0.40618,-1.47071 0,-1.096005 -0.33826,-1.918002 -1.01545,-2.466002 -0.67718,-0.576843 -1.51699,-0.865064 -2.51922,-0.865064 -0.81263,0 -1.598,0.05723 -2.35645,0.172599 -0.67719,0.115369 -1.35473,0.24543 -2.03192,0.389641 l -0.52813,0.129708 c -0.67719,0.14421 -1.34099,0.259705 -1.99109,0.346232 -0.78554,0.14421 -1.58465,0.216007 -2.39727,0.216007 -1.48981,0 -2.80317,-0.360534 -3.94085,-1.081588 -1.13767,-0.749896 -2.08582,-1.701436 -2.84427,-2.855123 -0.75845,-1.153686 -1.34086,-2.451711 -1.74718,-3.893819 -0.37922,-1.442107 -0.56895,-2.855111 -0.56895,-4.239534 0,-1.211371 0.10834,-2.480781 0.32504,-3.80752 0.2167,-1.326739 0.59617,-2.537885 1.13792,-3.633886 0.54175,-1.124844 1.27268,-2.04777 2.19366,-2.768824 0.92097,-0.749896 2.08581,-1.124996 3.49436,-1.124996 0.67719,0 1.36795,0.100929 2.07223,0.302824 l 0.56895,0.173116 c 0.70428,0.201895 1.39504,0.302824 2.07223,0.302824 0.48757,0 0.89399,-0.100929 1.21904,-0.302824 0.35214,-0.230737 0.63648,-0.518957 0.85318,-0.865063 0.24379,-0.374948 0.41979,-0.778663 0.52814,-1.211296 0.10835,-0.461474 0.16278,-0.908888 0.16278,-1.34152 0,-0.576843 -0.18974,-1.02374 -0.56896,-1.341003 -0.37923,-0.346106 -0.82634,-0.519348 -1.341,-0.519348 z"
       style="font-weight:bold;font-size:192px;font-family:'Mayan Square';-inkscape-font-specification:'Mayan Square Bold';white-space:pre;shape-inside:url(#rect1-5-74);display:inline;fill:#365b6d;fill-opacity:1"
       id="path32" />
    <path
       d="m 150.02909,70.434461 c -1.32729,0 -2.16709,0.66332 -2.51923,1.990059 l -5.36298,18.603516 c -0.27087,0.05768 -0.59591,0.129481 -0.97513,0.216007 -0.35214,0.08653 -0.70465,0.216587 -1.05679,0.38964 -0.32505,0.144211 -0.60939,0.346069 -0.85317,0.605648 -0.2167,0.230737 -0.32505,0.533524 -0.32505,0.908472 0,0.490316 0.176,0.822235 0.52813,0.995288 0.37923,0.173053 0.75869,0.259416 1.13792,0.259416 0.24379,0 0.43352,-0.01457 0.56896,-0.04341 l 12.55479,-1.687235 2.07222,8.090458 c 0.16253,0.57685 0.4606,1.05236 0.894,1.42731 0.46049,0.37494 0.97526,0.56275 1.54409,0.56275 h 2.84428 c 0.37922,0 0.70425,-0.0864 0.97513,-0.25941 0.29796,-0.2019 0.44648,-0.51925 0.44648,-0.95188 0,-0.25958 -0.14852,-0.83654 -0.44648,-1.730646 -0.27088,-0.894106 -0.59591,-1.860213 -0.97513,-2.898531 -0.35214,-1.038317 -0.70465,-2.033556 -1.05679,-2.985347 -0.35213,-0.951791 -0.59578,-1.629678 -0.73122,-2.033468 0.62301,-0.08653 1.17847,-0.158323 1.66605,-0.216007 0.51466,-0.08653 0.94804,-0.245203 1.30018,-0.47594 0.35214,-0.230738 0.62274,-0.562656 0.81235,-0.995288 0.2167,-0.432633 0.32505,-1.052772 0.32505,-1.860352 0,-0.66337 -0.18922,-1.124832 -0.56844,-1.384412 -0.37923,-0.259579 -0.84008,-0.389123 -1.38183,-0.389123 -0.6501,0 -1.28643,0.100929 -1.90945,0.302824 -0.59592,0.173053 -1.2053,0.331729 -1.82831,0.47594 l -5.03845,-14.92622 c -0.4334,-1.326739 -1.3139,-1.990059 -2.64118,-1.990059 z m -0.0403,6.23011 2.72231,11.854057 -5.68854,1.341003 z"
       style="font-weight:bold;font-size:192px;font-family:'Mayan Square';-inkscape-font-specification:'Mayan Square Bold';white-space:pre;shape-inside:url(#rect1-5-74);display:inline;fill:#365b6d;fill-opacity:1"
       id="path30" />
    <path
       d="m 123.69994,70.304753 -12.43283,0.47594 c -0.70427,0.02884 -1.2053,0.331628 -1.50327,0.908471 -0.27087,0.548001 -0.40669,1.153574 -0.40669,1.816944 0,0.374948 0.0677,0.77918 0.20309,1.211812 l 2.88509,10.426237 c 0.0542,0.173053 0.0949,0.360345 0.12196,0.56224 0.0271,0.173052 0.0403,0.360861 0.0403,0.562756 0,0.374948 -0.0539,0.720916 -0.16227,1.038179 l -2.88509,11.248409 c -0.10835,0.346106 -0.16226,0.749822 -0.16226,1.211296 0,0.807583 0.17599,1.485463 0.52813,2.033463 0.37922,0.51916 0.96164,0.79333 1.74718,0.82218 l 13.28653,0.43253 h 0.24391 c 0.51466,0 0.94804,-0.0864 1.30018,-0.25942 0.35214,-0.14421 0.63648,-0.38976 0.85318,-0.73587 0.2167,-0.34611 0.352,-0.74982 0.40617,-1.2113 0.0813,-0.49031 0.12196,-1.023571 0.12196,-1.600414 0,-0.144211 -0.0137,-0.332019 -0.0408,-0.562757 0,-0.230737 -0.0407,-0.447161 -0.12195,-0.649056 -0.0542,-0.230737 -0.13505,-0.418029 -0.2434,-0.562239 -0.0813,-0.144211 -0.1896,-0.216525 -0.32504,-0.216525 h -0.0816 l -11.82357,1.90376 0.81287,-11.118701 c 0.81263,0.05768 1.62495,0.144564 2.43758,0.259933 0.81262,0.08653 1.63869,0.129707 2.4784,0.129707 0.24379,0 0.44726,-0.07231 0.60978,-0.216524 0.18961,-0.173053 0.33865,-0.37491 0.447,-0.605648 0.10835,-0.259579 0.18922,-0.519184 0.2434,-0.778764 0.0542,-0.288421 0.0817,-0.53346 0.0817,-0.735355 0,-0.490317 -0.0407,-0.951779 -0.12196,-1.384412 -0.0542,-0.432632 -0.18948,-0.807732 -0.40617,-1.124996 -0.18962,-0.317263 -0.46074,-0.562302 -0.81288,-0.735355 -0.35213,-0.201895 -0.79925,-0.302824 -1.341,-0.302824 -0.59592,0 -1.17834,0.0718 -1.74718,0.216007 -0.56884,0.144211 -1.13752,0.274272 -1.70635,0.389641 l -0.97514,-8.739002 9.8733,1.643827 h 0.0817 c 0.18961,0 0.35187,-0.07231 0.48731,-0.216524 0.16252,-0.173053 0.29782,-0.37491 0.40617,-0.605648 0.10835,-0.259579 0.18974,-0.519184 0.24392,-0.778763 0.0542,-0.288422 0.0811,-0.518895 0.0811,-0.691948 0,-0.519159 -0.0407,-0.995187 -0.12196,-1.42782 -0.0542,-0.461474 -0.18947,-0.836574 -0.40617,-1.124996 -0.18962,-0.317263 -0.447,-0.547736 -0.77205,-0.691947 -0.32505,-0.144211 -0.71773,-0.216524 -1.17822,-0.216524 z"
       style="font-weight:bold;font-size:192px;font-family:'Mayan Square';-inkscape-font-specification:'Mayan Square Bold';white-space:pre;shape-inside:url(#rect1-5-74);display:inline;fill:#365b6d;fill-opacity:1"
       id="path29" />
    <path
       d="m 87.70059,70.391569 c -0.623013,0 -1.110306,0.129544 -1.462443,0.389124 -0.32505,0.230737 -0.487826,0.721332 -0.487826,1.471228 0,0.374948 0.05443,0.778663 0.162781,1.211295 0.10835,0.432633 0.257389,0.836348 0.447001,1.211296 0.2167,0.374948 0.474084,0.6923 0.772046,0.95188 0.297963,0.259579 0.649954,0.389123 1.056266,0.389123 0.785538,0 1.530214,-0.100929 2.234489,-0.302824 0.731363,-0.230737 1.476556,-0.346232 2.235006,-0.346232 0.8668,0 1.503132,0.245556 1.909442,0.735873 0.4334,0.490316 0.65009,1.124505 0.65009,1.903243 v 0.302824 l -0.97513,22.453921 v 0.21601 c 0,0.49032 0.14904,0.9086 0.447,1.25471 0.32505,0.3461 0.772166,0.51934 1.341006,0.51934 h 2.88457 c 0.54175,0 0.97513,-0.17324 1.300182,-0.51934 0.32505,-0.37495 0.48783,-0.82185 0.48783,-1.34101 v -0.12971 L 99.483848,77.919275 v -0.302824 c 0,-0.692212 0.18973,-1.283735 0.568962,-1.774052 0.37922,-0.519159 0.97486,-0.778764 1.78749,-0.778764 0.6501,0 1.28695,0.100929 1.90996,0.302824 0.62301,0.173053 1.25934,0.259933 1.90944,0.259933 0.46049,0 0.83995,-0.115495 1.13792,-0.346232 0.32505,-0.230738 0.58243,-0.518958 0.77204,-0.865064 0.2167,-0.346106 0.36574,-0.735772 0.447,-1.168404 0.10835,-0.432632 0.16227,-0.850914 0.16227,-1.254704 0,-0.461474 -0.0946,-0.792876 -0.28422,-0.994771 -0.18961,-0.230737 -0.42004,-0.389414 -0.69092,-0.47594 -0.24378,-0.08653 -0.5149,-0.129708 -0.81287,-0.129708 -0.0542,0 -0.18947,0.01405 -0.40617,0.04289 h -0.73122 c -0.62302,0 -1.36821,0.02913 -2.23501,0.08682 -0.8668,0.02884 -1.70608,0.158386 -2.51871,0.389123 -0.812622,0.201896 -1.530862,0.533814 -2.153872,0.995289 -0.62302,0.461474 -1.00196,1.124794 -1.1374,1.990059 -0.27088,-0.922949 -0.78564,-1.615401 -1.54409,-2.076876 -0.758456,-0.490316 -1.611476,-0.836284 -2.559537,-1.038179 -0.920975,-0.201895 -1.869121,-0.31739 -2.844271,-0.346232 -0.97515,-0.02884 -1.828688,-0.04289 -2.56005,-0.04289 z"
       style="font-weight:bold;font-size:192px;font-family:'Mayan Square';-inkscape-font-specification:'Mayan Square Bold';white-space:pre;shape-inside:url(#rect1-5-74);display:inline;fill:#365b6d;fill-opacity:1"
       id="path28" />
    <path
       d="m 56.495776,70.391569 c -0.623012,0 -1.110305,0.129544 -1.462443,0.389124 -0.32505,0.230737 -0.487825,0.721332 -0.487825,1.471228 0,0.374948 0.05443,0.778663 0.16278,1.211295 0.10835,0.432633 0.257389,0.836348 0.447001,1.211296 0.2167,0.374948 0.474084,0.6923 0.772046,0.95188 0.297963,0.259579 0.649954,0.389123 1.056267,0.389123 0.785537,0 1.530214,-0.100929 2.234489,-0.302824 0.731362,-0.230737 1.476555,-0.346232 2.235005,-0.346232 0.8668,0 1.503132,0.245556 1.909444,0.735873 0.4334,0.490316 0.65009,1.124505 0.65009,1.903243 v 0.302824 l -0.975134,22.453921 v 0.21601 c 0,0.49032 0.149038,0.9086 0.447001,1.25471 0.32505,0.3461 0.772166,0.51934 1.341003,0.51934 h 2.884579 c 0.54175,0 0.975129,-0.17324 1.300179,-0.51934 0.32505,-0.37495 0.487825,-0.82185 0.487825,-1.34101 v -0.12971 L 68.279036,77.919275 v -0.302824 c 0,-0.692212 0.189733,-1.283735 0.568958,-1.774052 0.379225,-0.519159 0.974863,-0.778764 1.787488,-0.778764 0.650099,0 1.286948,0.100929 1.90996,0.302824 0.623013,0.173053 1.259345,0.259933 1.909445,0.259933 0.460487,0 0.839952,-0.115495 1.137915,-0.346232 0.32505,-0.230738 0.582433,-0.518958 0.772046,-0.865064 0.2167,-0.346106 0.365738,-0.735772 0.447001,-1.168404 0.10835,-0.432632 0.162264,-0.850914 0.162264,-1.254704 0,-0.461474 -0.09461,-0.792876 -0.284221,-0.994771 -0.189612,-0.230737 -0.420039,-0.389414 -0.690914,-0.47594 -0.243787,-0.08653 -0.514391,-0.129708 -0.812353,-0.129708 -0.05418,0 -0.189994,0.01405 -0.406694,0.04289 H 74.04871 c -0.623013,0 -1.367689,0.02913 -2.234489,0.08682 -0.8668,0.02884 -1.706601,0.158386 -2.519226,0.389123 -0.812625,0.201896 -1.530345,0.533814 -2.153357,0.995289 -0.623013,0.461474 -1.002478,1.124794 -1.137915,1.990059 -0.270875,-0.922949 -0.785642,-1.615401 -1.544092,-2.076876 -0.75845,-0.490316 -1.611471,-0.836284 -2.559534,-1.038179 -0.920975,-0.201895 -1.86912,-0.31739 -2.84427,-0.346232 -0.97515,-0.02884 -1.828688,-0.04289 -2.560051,-0.04289 z"
       style="font-weight:bold;font-size:192px;font-family:'Mayan Square';-inkscape-font-specification:'Mayan Square Bold';white-space:pre;shape-inside:url(#rect1-5-74);display:inline;fill:#365b6d;fill-opacity:1"
       id="path27" />
    <path
       d="m 79.330558,70.348161 c -0.460487,0 -0.812479,0.216424 -1.056266,0.649056 -0.2167,0.432632 -0.325045,0.850914 -0.325045,1.254704 0,0.288421 0.01374,0.634389 0.04082,1.038179 0.02709,0.374948 0.09474,0.720916 0.203089,1.03818 0.10835,0.317263 0.270609,0.591435 0.487309,0.822172 0.2167,0.230737 0.514777,0.346232 0.894002,0.346232 0.270875,0 0.622866,-0.01457 1.056266,-0.04341 l 1.300696,-0.173116 c 0.460487,-0.08653 0.893866,-0.17289 1.300179,-0.259416 0.4334,-0.08653 0.771654,-0.187455 1.015442,-0.302824 0.135437,-0.05768 0.243782,-0.173179 0.325045,-0.346232 0.10835,-0.173053 0.176,-0.374911 0.203088,-0.605648 0.05418,-0.230737 0.08165,-0.447161 0.08165,-0.649056 0.02709,-0.230737 0.04031,-0.418029 0.04031,-0.562239 0,-0.346106 -0.05391,-0.750338 -0.162264,-1.211813 -0.10835,-0.461474 -0.365733,-0.720563 -0.772046,-0.778247 -0.731362,-0.144211 -1.489775,-0.216524 -2.275313,-0.216524 z"
       style="font-weight:bold;font-size:192px;font-family:'Mayan Square';-inkscape-font-specification:'Mayan Square Bold';white-space:pre;shape-inside:url(#rect1-5-74);display:inline;fill:#365b6d;fill-opacity:1"
       id="path26" />
    <path
       d="m 80.387341,78.265507 c 0.514663,0 1.056386,0.158676 1.625224,0.47594 0.568837,0.288422 0.880135,0.749884 0.93431,1.384412 l 1.219047,20.982181 v 0.0868 c 0,0.51916 -0.243647,0.90831 -0.731222,1.16789 -0.460487,0.25958 -0.92134,0.38964 -1.381828,0.38964 h -1.462443 c -0.54175,0 -1.056516,-0.1155 -1.544091,-0.34624 -0.460488,-0.25958 -0.690914,-0.70647 -0.690914,-1.341 v -0.0868 l 0.650089,-20.809584 c 0.02709,-0.519159 0.108476,-0.966055 0.243913,-1.341003 0.162525,-0.374948 0.54199,-0.56224 1.137915,-0.56224 z"
       style="font-weight:bold;font-size:192px;font-family:'Mayan Square';-inkscape-font-specification:'Mayan Square Bold';white-space:pre;shape-inside:url(#rect1-5-74);display:inline;fill:#365b6d;fill-opacity:1"
       id="path25" />
    <path
       d="m 15.7024,70.434461 c -0.650099,0 -1.164866,0.230989 -1.544091,0.692464 -0.379225,0.432632 -0.568958,0.995024 -0.568958,1.687235 l 0.121957,28.64011 c 0,0.37495 0.108344,0.6923 0.325044,0.95188 0.2167,0.23074 0.514778,0.34623 0.894003,0.34623 h 3.209623 c 0.352137,0 0.623258,-0.10092 0.81287,-0.30282 0.2167,-0.23074 0.325045,-0.51947 0.325045,-0.86558 v -0.12971 l -0.65009,-10.513051 c 0.8668,0.173053 1.733558,0.360861 2.600358,0.562757 0.8668,0.173052 1.746779,0.259415 2.640666,0.259415 1.40855,0 2.654773,-0.302786 3.738273,-0.908471 1.110588,-0.634528 2.031777,-1.456525 2.763139,-2.466 0.75845,-1.038317 1.327131,-2.206282 1.706356,-3.504179 0.379225,-1.326739 0.568957,-2.682512 0.568957,-4.066935 0,-1.47095 -0.244163,-2.840772 -0.731738,-4.109827 -0.487575,-1.269054 -1.177821,-2.365222 -2.071708,-3.288171 -0.8668,-0.922949 -1.896334,-1.644017 -3.088184,-2.163175 -1.164762,-0.548001 -2.437942,-0.822172 -3.819405,-0.822172 z m 2.315621,3.980635 h 0.690914 c 1.056413,0 2.099167,0.0718 3.128492,0.216008 1.056412,0.14421 2.004558,0.446997 2.84427,0.908471 0.839713,0.432633 1.516738,1.081904 2.031401,1.947168 0.514662,0.836423 0.772046,1.94664 0.772046,3.331063 0,0.66337 -0.121565,1.384437 -0.365353,2.163176 -0.2167,0.778738 -0.541734,1.499805 -0.975134,2.163175 -0.406312,0.634527 -0.907859,1.168304 -1.503784,1.600936 -0.568837,0.432632 -1.218906,0.648539 -1.950269,0.648539 -0.704275,0 -1.395037,-0.05723 -2.072225,-0.172599 -0.650099,-0.115369 -1.327125,-0.216298 -2.0314,-0.302824 z"
       style="font-weight:bold;font-size:192px;font-family:'Mayan Square';-inkscape-font-specification:'Mayan Square Bold';white-space:pre;shape-inside:url(#rect1-5-74);display:inline;fill:#365b6d;fill-opacity:1"
       id="path24" />
    <path
       d="m 45.525386,70.434461 c -1.7336,0 -3.318077,0.331918 -4.753715,0.995288 -1.435637,0.634527 -2.668123,1.528837 -3.697448,2.682523 -1.002238,1.124844 -1.787608,2.465534 -2.356446,4.02301 -0.568837,1.557477 -0.853178,3.245168 -0.853178,5.062224 0,1.61516 0.270604,3.158225 0.812354,4.629175 0.568837,1.442107 1.340988,2.725567 2.316138,3.850411 0.97515,1.096001 2.126248,1.975745 3.453536,2.639115 1.354374,0.634527 2.80355,0.951363 4.347538,0.951363 1.760687,0 3.358902,-0.28822 4.794539,-0.865063 1.435638,-0.605686 2.654387,-1.442248 3.656625,-2.509408 1.002237,-1.096002 1.774387,-2.408077 2.316137,-3.936711 0.54175,-1.528634 0.812871,-3.230374 0.812871,-5.105114 0,-1.788214 -0.244164,-3.432207 -0.731739,-4.931999 -0.460487,-1.528634 -1.15125,-2.841226 -2.072225,-3.937227 -0.920975,-1.096002 -2.058336,-1.96118 -3.412711,-2.595708 -1.354375,-0.634527 -2.898676,-0.951879 -4.632276,-0.951879 z m -0.162264,4.845699 c 1.056413,0 1.977085,0.187291 2.762622,0.562239 0.812625,0.374948 1.490168,0.894158 2.031918,1.557528 0.54175,0.663369 0.947655,1.456751 1.21853,2.3797 0.297962,0.894106 0.447001,1.874779 0.447001,2.941939 0,1.067159 -0.149039,2.076448 -0.447001,3.028239 -0.297962,0.951791 -0.744562,1.788354 -1.340487,2.509407 -0.568837,0.692212 -1.273337,1.240038 -2.113049,1.643828 -0.812625,0.40379 -1.747034,0.605647 -2.803446,0.605647 -1.002238,0 -1.923427,-0.201857 -2.763139,-0.605647 -0.839713,-0.432633 -1.570652,-1.00959 -2.193665,-1.730644 -0.595925,-0.721054 -1.056778,-1.543051 -1.381828,-2.465999 -0.32505,-0.951791 -0.487308,-1.946514 -0.487308,-2.984831 0,-2.336214 0.623111,-4.15345 1.869136,-5.451347 1.273113,-1.326739 3.006629,-1.990059 5.200716,-1.990059 z"
       style="font-weight:bold;font-size:192px;font-family:'Mayan Square';-inkscape-font-specification:'Mayan Square Bold';white-space:pre;shape-inside:url(#rect1-5-74);display:inline;fill:#365b6d;fill-opacity:1"
       id="path21" />
    <path
       d="m 51.538973,97.041622 c 0.406312,0 0.758304,0.14411 1.056266,0.432532 0.297963,0.259579 0.528389,0.620113 0.690914,1.081587 0.162525,0.461475 0.257133,0.966119 0.28422,1.514119 0.05418,0.548 0.08165,1.02403 0.08165,1.42782 0,0.37495 -0.108345,0.67773 -0.325045,0.90847 -0.2167,0.23074 -0.501557,0.34623 -0.853694,0.34623 H 39.796537 c -0.460487,0 -0.771785,-0.15867 -0.93431,-0.47594 -0.162525,-0.3461 -0.243913,-0.73577 -0.243913,-1.1684 0,-0.69221 0.21669,-1.268652 0.65009,-1.730127 0.4334,-0.490316 0.961387,-0.779053 1.584399,-0.86558 L 51.173104,97.08503 c 0.135437,-0.02884 0.257519,-0.04341 0.365869,-0.04341 z"
       style="font-weight:bold;font-size:192px;font-family:'Mayan Square';-inkscape-font-specification:'Mayan Square Bold';white-space:pre;shape-inside:url(#rect1-5-74);display:inline;fill:#365b6d;fill-opacity:1"
       id="path20" />
    <text
       xml:space="preserve"
       transform="matrix(0.21162108,0,0,0.22532931,133.89099,80.933823)"
       id="text1-1-7-6"
       style="font-style:normal;font-variant:normal;font-weight:bold;font-stretch:normal;font-size:51.6967px;font-family:'Mayan Square';-inkscape-font-specification:'Mayan Square Bold';text-align:start;writing-mode:lr-tb;direction:ltr;white-space:pre;shape-inside:url(#rect1-5-74-9);display:inline;fill:#365b6d;fill-opacity:1"><tspan
         x="107.45898"
         y="148.06459"
         id="tspan10"><tspan
           style="font-family:Abocat;-inkscape-font-specification:'Abocat Bold'"
           id="tspan9">Abocat</tspan></tspan></text>
    <text
       xml:space="preserve"
       transform="matrix(0.26458333,0,0,0.26458333,114.29557,146.88411)"
       id="text1-1-1"
       style="font-style:normal;font-variant:normal;font-weight:bold;font-stretch:normal;font-size:42.6667px;font-family:'Mayan Square';-inkscape-font-specification:'Mayan Square Bold';text-align:start;writing-mode:lr-tb;direction:ltr;white-space:pre;shape-inside:url(#rect1-5-7);display:inline;fill:#365b6d;fill-opacity:1"><tspan
         x="107.45898"
         y="131.72399"
         id="tspan11">Mayan Square</tspan></text>
    <text
       xml:space="preserve"
       transform="matrix(0.26458333,0,0,0.26458333,-16.480202,177.33175)"
       id="text1-6"
       style="font-size:192px;text-align:start;writing-mode:lr-tb;direction:ltr;white-space:pre;shape-inside:url(#rect1-52);display:inline;fill:#365b6d;fill-opacity:1"><tspan
         x="107.45898"
         y="269.55805"
         id="tspan13"><tspan
           style="font-family:'JI Burrito';-inkscape-font-specification:'JI Burrito'"
           id="tspan12">Potiteca</tspan></tspan></text>
    <text
       xml:space="preserve"
       transform="matrix(0.26458333,0,0,0.26458333,127.61011,222.95779)"
       id="text1-6-2"
       style="font-size:42.6667px;text-align:start;writing-mode:lr-tb;direction:ltr;white-space:pre;shape-inside:url(#rect1-52-3);shape-padding:0;display:inline;fill:#365b6d;fill-opacity:1"><tspan
         x="107.45898"
         y="133.31675"
         id="tspan15"><tspan
           style="font-family:'JI Burrito';-inkscape-font-specification:'JI Burrito'"
           id="tspan14">JI Burrito</tspan></tspan></text>
    <text
       xml:space="preserve"
       transform="scale(0.26458333)"
       id="text2"
       style="fill:#000000;text-align:start;writing-mode:lr-tb;text-orientation:auto;direction:ltr;white-space:pre;shape-inside:url(#rect2)" />
    <path
       style="fill:#365b6d;fill-opacity:1;stroke-width:0.308049;stroke-dasharray:none"
       d="m 156.7974,101.83577 c -0.66218,-0.62836 -0.95052,-1.39491 -1.81392,-4.822365 -0.56462,-2.241381 -1.10322,-4.165423 -1.19688,-4.275646 -0.0937,-0.110225 -2.90764,0.170937 -6.25329,0.624806 -6.57874,0.892466 -7.80746,0.920242 -8.26681,0.186886 -0.44964,-0.717825 0.0784,-1.342729 1.66337,-1.968513 l 1.37322,-0.542179 2.64368,-9.238398 c 1.45403,-5.081117 2.84769,-9.602031 3.09702,-10.046475 0.84122,-1.499516 3.16384,-1.538838 4.08171,-0.06911 0.20649,0.330647 1.49901,3.964226 2.87226,8.074615 2.37228,7.100644 2.52936,7.470963 3.14891,7.423851 0.35864,-0.02727 1.45373,-0.13381 2.43354,-0.236754 2.29978,-0.241623 2.83116,0.168685 2.62197,2.024586 -0.17289,1.533914 -1.04966,2.364393 -2.76825,2.622114 -0.67521,0.101253 -1.22766,0.269171 -1.22766,0.373147 0,0.103976 0.55358,1.710002 1.23018,3.568948 0.67661,1.858944 1.39914,4.02403 1.60563,4.811297 0.5158,1.9665 0.22099,2.23632 -2.44341,2.23632 -1.82502,0 -2.08778,-0.0701 -2.80127,-0.74713 z m -4.08828,-13.181939 c 0.0875,-0.03442 -0.4573,-2.782057 -1.21066,-6.105853 -0.75336,-3.323796 -1.4506,-5.952326 -1.54943,-5.841177 -0.18169,0.204322 -2.97595,12.437732 -2.9711,13.007604 0.002,0.2075 0.91199,0.09486 2.78737,-0.344934 1.53161,-0.35918 2.85633,-0.681218 2.94382,-0.71564 z"
       id="path96" />
  </g>
</svg>
