<?xml version="1.0" encoding="UTF-8" standalone="no"?>
<!-- Created with Inkscape (http://www.inkscape.org/) -->

<svg
   width="210mm"
   height="297mm"
   viewBox="0 0 210 297"
   version="1.1"
   id="svg1"
   inkscape:version="1.4 (86a8ad7, 2024-10-11)"
   sodipodi:docname="IHC - Logo.svg"
   xmlns:inkscape="http://www.inkscape.org/namespaces/inkscape"
   xmlns:sodipodi="http://sodipodi.sourceforge.net/DTD/sodipodi-0.dtd"
   xmlns:xlink="http://www.w3.org/1999/xlink"
   xmlns="http://www.w3.org/2000/svg"
   xmlns:svg="http://www.w3.org/2000/svg">
  <sodipodi:namedview
     id="namedview1"
     pagecolor="#ffffff"
     bordercolor="#000000"
     borderopacity="0.25"
     inkscape:showpageshadow="2"
     inkscape:pageopacity="0.0"
     inkscape:pagecheckerboard="0"
     inkscape:deskcolor="#d1d1d1"
     inkscape:document-units="mm"
     inkscape:zoom="0.5"
     inkscape:cx="-5"
     inkscape:cy="703"
     inkscape:window-width="1920"
     inkscape:window-height="991"
     inkscape:window-x="-9"
     inkscape:window-y="-9"
     inkscape:window-maximized="1"
     inkscape:current-layer="layer1"
     showgrid="false" />
  <defs
     id="defs1">
    <linearGradient
       id="linearGradient95"
       inkscape:collect="always">
      <stop
         style="stop-color:#6cdcd1;stop-opacity:0.21372034;"
         offset="0"
         id="stop95" />
      <stop
         style="stop-color:#6cdcd1;stop-opacity:0;"
         offset="1"
         id="stop96" />
    </linearGradient>
    <rect
       x="10.16512"
       y="119.07712"
       width="213.46752"
       height="13.06944"
       id="rect2" />
    <rect
       x="107.45984"
       y="94.3904"
       width="823.59669"
       height="419.93376"
       id="rect1" />
    <rect
       x="107.45984"
       y="94.390404"
       width="654.16933"
       height="134.47442"
       id="rect1-4" />
    <rect
       x="107.45984"
       y="94.390404"
       width="580.23745"
       height="261.8016"
       id="rect1-5" />
    <rect
       x="107.45984"
       y="94.390404"
       width="582.29111"
       height="338.81402"
       id="rect1-52" />
    <rect
       x="107.45984"
       y="94.390404"
       width="169.50459"
       height="72.86449"
       id="rect1-52-3" />
    <rect
       x="107.45984"
       y="94.390404"
       width="235.22181"
       height="63.622995"
       id="rect1-5-7" />
    <rect
       x="107.45984"
       y="94.390404"
       width="821.543"
       height="320.33105"
       id="rect1-5-74" />
    <rect
       x="107.45984"
       y="94.390404"
       width="196.32428"
       height="99.685405"
       id="rect1-5-74-9" />
    <rect
       x="107.45984"
       y="94.390404"
       width="165.33966"
       height="49.829244"
       id="rect1-4-6" />
    <linearGradient
       inkscape:collect="always"
       xlink:href="#linearGradient95"
       id="linearGradient96"
       x1="117.05898"
       y1="145.51063"
       x2="736.16299"
       y2="145.51063"
       gradientUnits="userSpaceOnUse" />
    <rect
       x="107.45984"
       y="94.390404"
       width="115.60066"
       height="220.02009"
       id="rect1-52-4" />
    <rect
       x="107.45984"
       y="94.390404"
       width="582.29114"
       height="338.81403"
       id="rect1-52-4-5" />
    <rect
       x="107.45984"
       y="94.390404"
       width="582.29114"
       height="338.81403"
       id="rect1-52-4-52" />
  </defs>
  <g
     inkscape:label="Camada 1"
     inkscape:groupmode="layer"
     id="layer1">
    <rect
       style="fill:#ebebeb;fill-opacity:1;stroke-width:0.271543;stroke-dasharray:none"
       id="rect101"
       width="210"
       height="297"
       x="0"
       y="0" />
    <text
       xml:space="preserve"
       transform="matrix(0.25010187,0,0,0.35948247,-13.930744,-29.537801)"
       id="text1-8"
       style="font-size:96px;text-align:start;writing-mode:lr-tb;direction:ltr;white-space:pre;shape-inside:url(#rect1-4);fill:#365b6d;fill-opacity:1;stroke-width:1.00051575;stroke-dasharray:none"><tspan
         x="107.45898"
         y="183.19063"
         id="tspan2"><tspan
           style="font-family:'Baou Test';-inkscape-font-specification:'Baou Test'"
           id="tspan1">Potiteca</tspan></tspan></text>
    <text
       xml:space="preserve"
       transform="matrix(0.25010187,0,0,0.35948247,138.14291,2.7847591)"
       id="text1-8-2"
       style="font-size:37.649px;text-align:start;writing-mode:lr-tb;direction:ltr;white-space:pre;shape-inside:url(#rect1-4-6);fill:#365b6d;fill-opacity:1"><tspan
         x="107.45898"
         y="129.21595"
         id="tspan5"><tspan
           style="font-family:'Baou Test';-inkscape-font-specification:'Baou Test'"
           id="tspan4">Baou</tspan></tspan></text>
    <text
       xml:space="preserve"
       transform="matrix(0.26458333,0,0,0.26458333,-13.112093,122.76827)"
       id="text1-1"
       style="font-style:normal;font-variant:normal;font-weight:bold;font-stretch:normal;font-size:192px;font-family:'Mayan Square';-inkscape-font-specification:'Mayan Square Bold';text-align:start;writing-mode:lr-tb;direction:ltr;white-space:pre;shape-inside:url(#rect1-5);display:inline;fill:#365b6d;fill-opacity:1"><tspan
         x="107.45898"
         y="262.39062"
         id="tspan6">Potiteca</tspan></text>
    <path
       d="m 138.28561,71.492794 c -2.19408,0 -4.10359,0.447413 -5.72884,1.34152 -1.62525,0.865264 -2.97982,2.047795 -4.06332,3.547587 -1.05642,1.47095 -1.85501,3.18674 -2.39676,5.148006 -0.51466,1.932424 -0.77204,3.980133 -0.77204,6.143294 0,2.393899 0.28434,4.586235 0.85318,6.576343 0.56883,1.990108 1.43559,3.691849 2.60035,5.105115 1.16477,1.413261 2.61394,2.508911 4.34754,3.287651 1.76069,0.77874 3.81924,1.1684 6.17585,1.1684 h 11.13317 c 0.59593,0 1.01557,-0.1878 1.25936,-0.56275 0.27087,-0.37495 0.40618,-0.86503 0.40618,-1.47071 0,-1.096 -0.33826,-1.917999 -1.01545,-2.465999 -0.67718,-0.576843 -1.51699,-0.865064 -2.51922,-0.865064 -0.81263,0 -1.598,0.05723 -2.35645,0.172599 -0.67719,0.115369 -1.35473,0.24543 -2.03192,0.389641 l -0.52813,0.129708 c -0.67719,0.14421 -1.34099,0.259705 -1.99109,0.346232 -0.78554,0.14421 -1.58465,0.216007 -2.39727,0.216007 -1.48981,0 -2.80317,-0.360534 -3.94085,-1.081588 -1.13767,-0.749896 -2.08582,-1.701436 -2.84427,-2.855123 -0.75845,-1.153686 -1.34086,-2.451711 -1.74718,-3.893819 -0.37922,-1.442107 -0.56895,-2.855111 -0.56895,-4.239534 0,-1.211371 0.10834,-2.480781 0.32504,-3.80752 0.2167,-1.326739 0.59617,-2.537885 1.13792,-3.633886 0.54175,-1.124844 1.27268,-2.04777 2.19366,-2.768824 0.92097,-0.749896 2.08581,-1.124996 3.49436,-1.124996 0.67719,0 1.36795,0.100929 2.07223,0.302824 l 0.56895,0.173116 c 0.70428,0.201895 1.39504,0.302824 2.07223,0.302824 0.48757,0 0.89399,-0.100929 1.21904,-0.302824 0.35214,-0.230737 0.63648,-0.518957 0.85318,-0.865063 0.24379,-0.374948 0.41979,-0.778663 0.52814,-1.211296 0.10835,-0.461474 0.16278,-0.908888 0.16278,-1.34152 0,-0.576843 -0.18974,-1.02374 -0.56896,-1.341003 -0.37923,-0.346106 -0.82634,-0.519348 -1.341,-0.519348 z"
       style="font-weight:bold;font-size:192px;font-family:'Mayan Square';-inkscape-font-specification:'Mayan Square Bold';white-space:pre;shape-inside:url(#rect1-5-74);display:inline;fill:#365b6d;fill-opacity:1"
       id="path32" />
    <path
       d="m 149.49992,71.492794 c -1.32729,0 -2.16709,0.66332 -2.51923,1.990059 l -5.36298,18.603516 c -0.27087,0.05768 -0.59591,0.129481 -0.97513,0.216007 -0.35214,0.08653 -0.70465,0.216587 -1.05679,0.38964 -0.32505,0.144211 -0.60939,0.346069 -0.85317,0.605648 -0.2167,0.230737 -0.32505,0.533524 -0.32505,0.908472 0,0.490316 0.176,0.822235 0.52813,0.995288 0.37923,0.173053 0.75869,0.259416 1.13792,0.259416 0.24379,0 0.43352,-0.01457 0.56896,-0.04341 l 12.55479,-1.687235 2.07222,8.090455 c 0.16253,0.57685 0.4606,1.05236 0.894,1.42731 0.46049,0.37494 0.97526,0.56275 1.54409,0.56275 h 2.84428 c 0.37922,0 0.70425,-0.0864 0.97513,-0.25941 0.29796,-0.2019 0.44648,-0.51925 0.44648,-0.95188 0,-0.25958 -0.14852,-0.83654 -0.44648,-1.73064 -0.27088,-0.894109 -0.59591,-1.860216 -0.97513,-2.898534 -0.35214,-1.038317 -0.70465,-2.033556 -1.05679,-2.985347 -0.35213,-0.951791 -0.59578,-1.629678 -0.73122,-2.033468 0.62301,-0.08653 1.17847,-0.158323 1.66605,-0.216007 0.51466,-0.08653 0.94804,-0.245203 1.30018,-0.47594 0.35214,-0.230738 0.62274,-0.562656 0.81235,-0.995288 0.2167,-0.432633 0.32505,-1.052772 0.32505,-1.860352 0,-0.66337 -0.18922,-1.124832 -0.56844,-1.384412 -0.37923,-0.259579 -0.84008,-0.389123 -1.38183,-0.389123 -0.6501,0 -1.28643,0.100929 -1.90945,0.302824 -0.59592,0.173053 -1.2053,0.331729 -1.82831,0.47594 l -5.03845,-14.92622 c -0.4334,-1.326739 -1.3139,-1.990059 -2.64118,-1.990059 z m -0.0403,6.23011 2.72231,11.854057 -5.68854,1.341003 z"
       style="font-weight:bold;font-size:192px;font-family:'Mayan Square';-inkscape-font-specification:'Mayan Square Bold';white-space:pre;shape-inside:url(#rect1-5-74);display:inline;fill:#365b6d;fill-opacity:1"
       id="path30" />
    <path
       d="m 123.17077,71.363086 -12.43283,0.47594 c -0.70427,0.02884 -1.2053,0.331628 -1.50327,0.908471 -0.27087,0.548001 -0.40669,1.153574 -0.40669,1.816944 0,0.374948 0.0677,0.77918 0.20309,1.211812 l 2.88509,10.426237 c 0.0542,0.173053 0.0949,0.360345 0.12196,0.56224 0.0271,0.173052 0.0403,0.360861 0.0403,0.562756 0,0.374948 -0.0539,0.720916 -0.16227,1.038179 l -2.88509,11.248409 c -0.10835,0.346106 -0.16226,0.749826 -0.16226,1.211296 0,0.80758 0.17599,1.48546 0.52813,2.03346 0.37922,0.51916 0.96164,0.79333 1.74718,0.82218 l 13.28653,0.43253 h 0.24391 c 0.51466,0 0.94804,-0.0864 1.30018,-0.25942 0.35214,-0.14421 0.63648,-0.38976 0.85318,-0.73587 0.2167,-0.34611 0.352,-0.74982 0.40617,-1.2113 0.0813,-0.49031 0.12196,-1.02357 0.12196,-1.60041 0,-0.14421 -0.0137,-0.33202 -0.0408,-0.562758 0,-0.230737 -0.0407,-0.447161 -0.12195,-0.649056 -0.0542,-0.230737 -0.13505,-0.418029 -0.2434,-0.562239 -0.0813,-0.144211 -0.1896,-0.216525 -0.32504,-0.216525 h -0.0816 l -11.82357,1.903758 0.81287,-11.118699 c 0.81263,0.05768 1.62495,0.144564 2.43758,0.259933 0.81262,0.08653 1.63869,0.129707 2.4784,0.129707 0.24379,0 0.44726,-0.07231 0.60978,-0.216524 0.18961,-0.173053 0.33865,-0.37491 0.447,-0.605648 0.10835,-0.259579 0.18922,-0.519184 0.2434,-0.778764 0.0542,-0.288421 0.0817,-0.53346 0.0817,-0.735355 0,-0.490317 -0.0407,-0.951779 -0.12196,-1.384412 -0.0542,-0.432632 -0.18948,-0.807732 -0.40617,-1.124996 -0.18962,-0.317263 -0.46074,-0.562302 -0.81288,-0.735355 -0.35213,-0.201895 -0.79925,-0.302824 -1.341,-0.302824 -0.59592,0 -1.17834,0.0718 -1.74718,0.216007 -0.56884,0.144211 -1.13752,0.274272 -1.70635,0.389641 l -0.97514,-8.739002 9.8733,1.643827 h 0.0817 c 0.18961,0 0.35187,-0.07231 0.48731,-0.216524 0.16252,-0.173053 0.29782,-0.37491 0.40617,-0.605648 0.10835,-0.259579 0.18974,-0.519184 0.24392,-0.778763 0.0542,-0.288422 0.0811,-0.518895 0.0811,-0.691948 0,-0.519159 -0.0407,-0.995187 -0.12196,-1.42782 -0.0542,-0.461474 -0.18947,-0.836574 -0.40617,-1.124996 -0.18962,-0.317263 -0.447,-0.547736 -0.77205,-0.691947 -0.32505,-0.144211 -0.71773,-0.216524 -1.17822,-0.216524 z"
       style="font-weight:bold;font-size:192px;font-family:'Mayan Square';-inkscape-font-specification:'Mayan Square Bold';white-space:pre;shape-inside:url(#rect1-5-74);display:inline;fill:#365b6d;fill-opacity:1"
       id="path29" />
    <path
       d="m 87.171423,71.449902 c -0.623013,0 -1.110306,0.129544 -1.462443,0.389124 -0.32505,0.230737 -0.487826,0.721332 -0.487826,1.471228 0,0.374948 0.05443,0.778663 0.162781,1.211295 0.10835,0.432633 0.257389,0.836348 0.447001,1.211296 0.2167,0.374948 0.474084,0.6923 0.772046,0.95188 0.297963,0.259579 0.649954,0.389123 1.056266,0.389123 0.785538,0 1.530214,-0.100929 2.234489,-0.302824 0.731363,-0.230737 1.476556,-0.346232 2.235006,-0.346232 0.8668,0 1.503132,0.245556 1.909442,0.735873 0.4334,0.490316 0.65009,1.124505 0.65009,1.903243 v 0.302824 l -0.97513,22.453918 v 0.21601 c 0,0.49032 0.14904,0.9086 0.447,1.25471 0.32505,0.3461 0.772166,0.51934 1.341006,0.51934 h 2.88457 c 0.54175,0 0.97513,-0.17324 1.300182,-0.51934 0.325047,-0.37495 0.487827,-0.82185 0.487827,-1.34101 v -0.12971 L 98.954681,78.977608 v -0.302824 c 0,-0.692212 0.18973,-1.283735 0.568962,-1.774052 0.37922,-0.519159 0.974857,-0.778764 1.787487,-0.778764 0.6501,0 1.28695,0.100929 1.90996,0.302824 0.62301,0.173053 1.25934,0.259933 1.90944,0.259933 0.46049,0 0.83995,-0.115495 1.13792,-0.346232 0.32505,-0.230738 0.58243,-0.518958 0.77204,-0.865064 0.2167,-0.346106 0.36574,-0.735772 0.447,-1.168404 0.10835,-0.432632 0.16227,-0.850914 0.16227,-1.254704 0,-0.461474 -0.0946,-0.792876 -0.28422,-0.994771 -0.18961,-0.230737 -0.42004,-0.389414 -0.69092,-0.47594 -0.24378,-0.08653 -0.5149,-0.129708 -0.81287,-0.129708 -0.0542,0 -0.18947,0.01405 -0.40617,0.04289 h -0.73122 c -0.62302,0 -1.36821,0.02913 -2.23501,0.08682 -0.8668,0.02884 -1.70608,0.158386 -2.518707,0.389123 -0.812622,0.201896 -1.530862,0.533814 -2.153872,0.995289 -0.62302,0.461474 -1.00196,1.124794 -1.1374,1.990059 -0.27088,-0.922949 -0.78564,-1.615401 -1.54409,-2.076876 -0.758456,-0.490316 -1.611476,-0.836284 -2.559537,-1.038179 -0.920975,-0.201895 -1.869121,-0.31739 -2.844271,-0.346232 -0.97515,-0.02884 -1.828688,-0.04289 -2.56005,-0.04289 z"
       style="font-weight:bold;font-size:192px;font-family:'Mayan Square';-inkscape-font-specification:'Mayan Square Bold';white-space:pre;shape-inside:url(#rect1-5-74);display:inline;fill:#365b6d;fill-opacity:1"
       id="path28" />
    <path
       d="m 55.966609,71.449902 c -0.623012,0 -1.110305,0.129544 -1.462443,0.389124 -0.32505,0.230737 -0.487825,0.721332 -0.487825,1.471228 0,0.374948 0.05443,0.778663 0.16278,1.211295 0.10835,0.432633 0.257389,0.836348 0.447001,1.211296 0.2167,0.374948 0.474084,0.6923 0.772046,0.95188 0.297963,0.259579 0.649954,0.389123 1.056267,0.389123 0.785537,0 1.530214,-0.100929 2.234489,-0.302824 0.731362,-0.230737 1.476555,-0.346232 2.235005,-0.346232 0.8668,0 1.503132,0.245556 1.909444,0.735873 0.4334,0.490316 0.65009,1.124505 0.65009,1.903243 v 0.302824 l -0.975134,22.453918 v 0.21601 c 0,0.49032 0.149038,0.9086 0.447001,1.25471 0.32505,0.3461 0.772166,0.51934 1.341003,0.51934 h 2.884579 c 0.54175,0 0.975129,-0.17324 1.300179,-0.51934 0.32505,-0.37495 0.487825,-0.82185 0.487825,-1.34101 v -0.12971 L 67.749869,78.977608 v -0.302824 c 0,-0.692212 0.189733,-1.283735 0.568958,-1.774052 0.379225,-0.519159 0.974863,-0.778764 1.787488,-0.778764 0.650099,0 1.286948,0.100929 1.90996,0.302824 0.623013,0.173053 1.259345,0.259933 1.909445,0.259933 0.460487,0 0.839952,-0.115495 1.137915,-0.346232 0.32505,-0.230738 0.582433,-0.518958 0.772046,-0.865064 0.2167,-0.346106 0.365738,-0.735772 0.447001,-1.168404 0.10835,-0.432632 0.162264,-0.850914 0.162264,-1.254704 0,-0.461474 -0.09461,-0.792876 -0.284221,-0.994771 -0.189612,-0.230737 -0.420039,-0.389414 -0.690914,-0.47594 -0.243787,-0.08653 -0.514391,-0.129708 -0.812353,-0.129708 -0.05418,0 -0.189994,0.01405 -0.406694,0.04289 h -0.731221 c -0.623013,0 -1.367689,0.02913 -2.234489,0.08682 -0.8668,0.02884 -1.706601,0.158386 -2.519226,0.389123 -0.812625,0.201896 -1.530345,0.533814 -2.153357,0.995289 -0.623013,0.461474 -1.002478,1.124794 -1.137915,1.990059 -0.270875,-0.922949 -0.785642,-1.615401 -1.544092,-2.076876 -0.75845,-0.490316 -1.611471,-0.836284 -2.559534,-1.038179 -0.920975,-0.201895 -1.86912,-0.31739 -2.84427,-0.346232 -0.97515,-0.02884 -1.828688,-0.04289 -2.560051,-0.04289 z"
       style="font-weight:bold;font-size:192px;font-family:'Mayan Square';-inkscape-font-specification:'Mayan Square Bold';white-space:pre;shape-inside:url(#rect1-5-74);display:inline;fill:#365b6d;fill-opacity:1"
       id="path27" />
    <path
       d="m 78.801391,71.406494 c -0.460487,0 -0.812479,0.216424 -1.056266,0.649056 -0.2167,0.432632 -0.325045,0.850914 -0.325045,1.254704 0,0.288421 0.01374,0.634389 0.04082,1.038179 0.02709,0.374948 0.09474,0.720916 0.203089,1.03818 0.10835,0.317263 0.270609,0.591435 0.487309,0.822172 0.2167,0.230737 0.514777,0.346232 0.894002,0.346232 0.270875,0 0.622866,-0.01457 1.056266,-0.04341 l 1.300696,-0.173116 c 0.460487,-0.08653 0.893866,-0.17289 1.300179,-0.259416 0.4334,-0.08653 0.771654,-0.187455 1.015442,-0.302824 0.135437,-0.05768 0.243782,-0.173179 0.325045,-0.346232 0.10835,-0.173053 0.176,-0.374911 0.203088,-0.605648 0.05418,-0.230737 0.08165,-0.447161 0.08165,-0.649056 0.02709,-0.230737 0.04031,-0.418029 0.04031,-0.562239 0,-0.346106 -0.05391,-0.750338 -0.162264,-1.211813 -0.10835,-0.461474 -0.365733,-0.720563 -0.772046,-0.778247 -0.731362,-0.144211 -1.489775,-0.216524 -2.275313,-0.216524 z"
       style="font-weight:bold;font-size:192px;font-family:'Mayan Square';-inkscape-font-specification:'Mayan Square Bold';white-space:pre;shape-inside:url(#rect1-5-74);display:inline;fill:#365b6d;fill-opacity:1"
       id="path26" />
    <path
       d="m 79.858174,79.32384 c 0.514663,0 1.056386,0.158676 1.625224,0.47594 0.568837,0.288422 0.880135,0.749884 0.93431,1.384412 l 1.219047,20.982178 v 0.0868 c 0,0.51916 -0.243647,0.90831 -0.731222,1.16789 -0.460487,0.25958 -0.92134,0.38964 -1.381828,0.38964 h -1.462443 c -0.54175,0 -1.056516,-0.1155 -1.544091,-0.34624 -0.460488,-0.25958 -0.690914,-0.70647 -0.690914,-1.341 v -0.0868 l 0.650089,-20.809581 c 0.02709,-0.519159 0.108476,-0.966055 0.243913,-1.341003 0.162525,-0.374948 0.54199,-0.56224 1.137915,-0.56224 z"
       style="font-weight:bold;font-size:192px;font-family:'Mayan Square';-inkscape-font-specification:'Mayan Square Bold';white-space:pre;shape-inside:url(#rect1-5-74);display:inline;fill:#365b6d;fill-opacity:1"
       id="path25" />
    <path
       d="m 15.173233,71.492794 c -0.650099,0 -1.164866,0.230989 -1.544091,0.692464 -0.379225,0.432632 -0.568958,0.995024 -0.568958,1.687235 l 0.121957,28.640107 c 0,0.37495 0.108344,0.6923 0.325044,0.95188 0.2167,0.23074 0.514778,0.34623 0.894003,0.34623 h 3.209623 c 0.352137,0 0.623258,-0.10092 0.81287,-0.30282 0.2167,-0.23074 0.325045,-0.51947 0.325045,-0.86558 v -0.12971 l -0.65009,-10.513048 c 0.8668,0.173053 1.733558,0.360861 2.600358,0.562757 0.8668,0.173052 1.746779,0.259415 2.640666,0.259415 1.40855,0 2.654773,-0.302786 3.738273,-0.908471 1.110588,-0.634528 2.031777,-1.456525 2.763139,-2.466 0.75845,-1.038317 1.327131,-2.206282 1.706356,-3.504179 0.379225,-1.326739 0.568957,-2.682512 0.568957,-4.066935 0,-1.47095 -0.244163,-2.840772 -0.731738,-4.109827 -0.487575,-1.269054 -1.177821,-2.365222 -2.071708,-3.288171 -0.8668,-0.922949 -1.896334,-1.644017 -3.088184,-2.163175 -1.164762,-0.548001 -2.437942,-0.822172 -3.819405,-0.822172 z m 2.315621,3.980635 h 0.690914 c 1.056413,0 2.099167,0.0718 3.128492,0.216008 1.056412,0.14421 2.004558,0.446997 2.84427,0.908471 0.839713,0.432633 1.516738,1.081904 2.031401,1.947168 0.514662,0.836423 0.772046,1.94664 0.772046,3.331063 0,0.66337 -0.121565,1.384437 -0.365353,2.163176 -0.2167,0.778738 -0.541734,1.499805 -0.975134,2.163175 -0.406312,0.634527 -0.907859,1.168304 -1.503784,1.600936 -0.568837,0.432632 -1.218906,0.648539 -1.950269,0.648539 -0.704275,0 -1.395037,-0.05723 -2.072225,-0.172599 -0.650099,-0.115369 -1.327125,-0.216298 -2.0314,-0.302824 z"
       style="font-weight:bold;font-size:192px;font-family:'Mayan Square';-inkscape-font-specification:'Mayan Square Bold';white-space:pre;shape-inside:url(#rect1-5-74);display:inline;fill:#365b6d;fill-opacity:1"
       id="path24" />
    <path
       d="m 44.996219,71.492794 c -1.7336,0 -3.318077,0.331918 -4.753715,0.995288 -1.435637,0.634527 -2.668123,1.528837 -3.697448,2.682523 -1.002238,1.124844 -1.787608,2.465534 -2.356446,4.02301 -0.568837,1.557477 -0.853178,3.245168 -0.853178,5.062224 0,1.61516 0.270604,3.158225 0.812354,4.629175 0.568837,1.442107 1.340988,2.725567 2.316138,3.850411 0.97515,1.096001 2.126248,1.975745 3.453536,2.639115 1.354374,0.634527 2.80355,0.951363 4.347538,0.951363 1.760687,0 3.358902,-0.28822 4.794539,-0.865063 1.435638,-0.605686 2.654387,-1.442248 3.656625,-2.509408 1.002237,-1.096002 1.774387,-2.408077 2.316137,-3.936711 0.54175,-1.528634 0.812871,-3.230374 0.812871,-5.105114 0,-1.788214 -0.244164,-3.432207 -0.731739,-4.931999 -0.460487,-1.528634 -1.15125,-2.841226 -2.072225,-3.937227 -0.920975,-1.096002 -2.058336,-1.96118 -3.412711,-2.595708 -1.354375,-0.634527 -2.898676,-0.951879 -4.632276,-0.951879 z m -0.162264,4.845699 c 1.056413,0 1.977085,0.187291 2.762622,0.562239 0.812625,0.374948 1.490168,0.894158 2.031918,1.557528 0.54175,0.663369 0.947655,1.456751 1.21853,2.3797 0.297962,0.894106 0.447001,1.874779 0.447001,2.941939 0,1.067159 -0.149039,2.076448 -0.447001,3.028239 -0.297962,0.951791 -0.744562,1.788354 -1.340487,2.509407 -0.568837,0.692212 -1.273337,1.240038 -2.113049,1.643828 -0.812625,0.40379 -1.747034,0.605647 -2.803446,0.605647 -1.002238,0 -1.923427,-0.201857 -2.763139,-0.605647 -0.839713,-0.432633 -1.570652,-1.00959 -2.193665,-1.730644 -0.595925,-0.721054 -1.056778,-1.543051 -1.381828,-2.465999 -0.32505,-0.951791 -0.487308,-1.946514 -0.487308,-2.984831 0,-2.336214 0.623111,-4.15345 1.869136,-5.451347 1.273113,-1.326739 3.006629,-1.990059 5.200716,-1.990059 z"
       style="font-weight:bold;font-size:192px;font-family:'Mayan Square';-inkscape-font-specification:'Mayan Square Bold';white-space:pre;shape-inside:url(#rect1-5-74);display:inline;fill:#365b6d;fill-opacity:1"
       id="path21" />
    <path
       d="m 51.009806,98.099955 c 0.406312,0 0.758304,0.14411 1.056266,0.432532 0.297963,0.259579 0.528389,0.620113 0.690914,1.081587 0.162525,0.461476 0.257133,0.966116 0.28422,1.514116 0.05418,0.548 0.08165,1.02403 0.08165,1.42782 0,0.37495 -0.108345,0.67773 -0.325045,0.90847 -0.2167,0.23074 -0.501557,0.34623 -0.853694,0.34623 H 39.26737 c -0.460487,0 -0.771785,-0.15867 -0.93431,-0.47594 -0.162525,-0.3461 -0.243913,-0.73577 -0.243913,-1.1684 0,-0.69221 0.21669,-1.26865 0.65009,-1.73012 0.4334,-0.49032 0.961387,-0.779057 1.584399,-0.865584 l 10.320301,-1.427303 c 0.135437,-0.02884 0.257519,-0.04341 0.365869,-0.04341 z"
       style="font-weight:bold;font-size:192px;font-family:'Mayan Square';-inkscape-font-specification:'Mayan Square Bold';white-space:pre;shape-inside:url(#rect1-5-74);display:inline;fill:#365b6d;fill-opacity:1"
       id="path20" />
    <text
       xml:space="preserve"
       transform="matrix(0.21162108,0,0,0.22532931,133.36182,81.992156)"
       id="text1-1-7-6"
       style="font-style:normal;font-variant:normal;font-weight:bold;font-stretch:normal;font-size:51.6967px;font-family:'Mayan Square';-inkscape-font-specification:'Mayan Square Bold';text-align:start;writing-mode:lr-tb;direction:ltr;white-space:pre;shape-inside:url(#rect1-5-74-9);display:inline;fill:#365b6d;fill-opacity:1"><tspan
         x="107.45898"
         y="148.06459"
         id="tspan8"><tspan
           style="font-family:Abocat;-inkscape-font-specification:'Abocat Bold'"
           id="tspan7">Abocat</tspan></tspan></text>
    <text
       xml:space="preserve"
       transform="matrix(0.26458333,0,0,0.26458333,115.3539,171.22578)"
       id="text1-1-1"
       style="font-style:normal;font-variant:normal;font-weight:bold;font-stretch:normal;font-size:42.6667px;font-family:'Mayan Square';-inkscape-font-specification:'Mayan Square Bold';text-align:start;writing-mode:lr-tb;direction:ltr;white-space:pre;shape-inside:url(#rect1-5-7);display:inline;fill:#365b6d;fill-opacity:1"><tspan
         x="107.45898"
         y="131.72399"
         id="tspan9">Mayan Square</tspan></text>
    <path
       d="m 27.813806,234.67818 -12.852445,3.50521 0.457336,33.2233 h 6.299357 v -11.22722 l 13.106177,-5.84202 1.168404,-16.15406 z m -7.4104,4.44159 c 0.148166,0.002 0.298735,0.012 0.451135,0.0289 0.643467,0.0339 1.219026,0.16911 1.727026,0.40618 0.135467,0.0677 0.219865,0.16942 0.253732,0.30489 0.03387,0.13546 0.01709,0.27071 -0.05064,0.40617 -0.03387,0.1016 -0.118265,0.18652 -0.253732,0.25425 -0.1016,0.0339 -0.220067,0.0166 -0.355533,-0.0512 -0.338667,-0.16933 -0.694585,-0.2705 -1.067119,-0.30437 -0.372533,-0.0339 -0.745228,-0.0171 -1.117761,0.0506 -0.372533,-0.0339 -0.711159,0.0505 -1.015959,0.25373 -0.3048,0.2032 -0.524958,0.47421 -0.660424,0.81287 -0.1016,0.33867 -0.118377,0.6773 -0.05064,1.01596 0.06773,0.33867 0.271115,0.60967 0.609782,0.81287 0.3048,0.1016 0.507665,0.27091 0.609265,0.50798 0.135466,0.2032 0.203605,0.45743 0.203605,0.76223 0.03387,0.3048 0.03387,0.60935 0,0.91415 -0.03387,0.3048 -0.03387,0.57581 0,0.81288 0,0.0677 -0.01729,0.15264 -0.05116,0.25424 -0.03387,0.0677 -0.08471,0.11858 -0.152445,0.15245 -0.2032,0.16933 -0.440135,0.30458 -0.711068,0.40618 -0.270933,0.0677 -0.491091,0.20349 -0.660425,0.40669 -0.03387,0.27093 -0.06742,0.55871 -0.101286,0.86351 0,0.27094 0.0844,0.52465 0.253732,0.76171 0.474133,0.27094 0.846828,0.62685 1.117761,1.06712 0.3048,0.44027 0.490889,0.91414 0.558622,1.42214 0.1016,0.508 0.08482,1.03323 -0.05064,1.57509 -0.1016,0.54187 -0.321758,1.03252 -0.660425,1.47278 -0.677333,0.44027 -1.050027,0.98228 -1.117761,1.62574 -0.06773,0.6096 -0.08451,1.27008 -0.05064,1.98128 0.03387,0.0677 0.05064,0.13535 0.05064,0.20309 0,0.0339 0.01729,0.0847 0.05116,0.15244 0.372533,0.2032 0.711159,0.49098 1.015959,0.86351 0.338666,0.33867 0.575601,0.72814 0.711067,1.16841 0.135467,0.4064 0.152243,0.82994 0.05064,1.27021 -0.1016,0.4064 -0.35531,0.77909 -0.76171,1.11776 -0.4064,0.2032 -0.711473,0.47368 -0.914673,0.81235 -0.2032,0.33867 -0.338444,0.71136 -0.406177,1.11776 -0.03387,0.37253 -0.03387,0.77878 0,1.21905 0.06773,0.44027 0.135355,0.86381 0.203088,1.27021 0.2032,0.0339 0.49098,0.0506 0.863514,0.0506 0.372533,0 0.643536,-0.13525 0.81287,-0.40618 0.2032,-0.27093 0.440134,-0.305 0.711067,-0.1018 0.270934,0.2032 0.305003,0.44065 0.101803,0.71158 -0.372533,0.47414 -0.880471,0.74462 -1.523938,0.81236 -0.6096,0.0677 -1.168383,-0.0167 -1.676383,-0.25373 -0.3048,-0.74507 -0.491406,-1.52401 -0.559139,-2.33681 -0.03387,-0.84667 0.135446,-1.65968 0.507979,-2.43861 0.03387,-0.23707 0.118781,-0.42316 0.254248,-0.55863 0.169333,-0.13546 0.338646,-0.25393 0.507979,-0.35553 0.2032,-0.13547 0.389289,-0.27123 0.558623,-0.40669 0.169333,-0.13547 0.2878,-0.32156 0.355533,-0.55863 0.06773,-0.4064 1.12e-4,-0.72824 -0.203088,-0.96531 -0.169333,-0.23707 -0.389491,-0.45723 -0.660425,-0.66043 -0.237066,-0.23706 -0.474001,-0.45722 -0.711067,-0.66042 -0.2032,-0.23707 -0.321668,-0.52485 -0.355534,-0.86351 -0.06773,-0.1016 -0.06773,-0.186 0,-0.25374 v -1.67638 c -0.03387,-0.4064 0.03375,-0.76232 0.203088,-1.06712 0.2032,-0.33866 0.423358,-0.64322 0.660425,-0.91415 0.237067,-0.3048 0.457225,-0.60988 0.660425,-0.91468 0.237066,-0.3048 0.37231,-0.64342 0.406176,-1.01595 0.135467,-0.508 0.08462,-0.93103 -0.152445,-1.26969 -0.2032,-0.33867 -0.456911,-0.66052 -0.761711,-0.96532 -0.3048,-0.3048 -0.575803,-0.62665 -0.81287,-0.96532 -0.237067,-0.33866 -0.304688,-0.7622 -0.203088,-1.2702 -0.169334,-0.57574 -0.05087,-1.03283 0.355534,-1.3715 0.4064,-0.33866 0.82994,-0.59237 1.270206,-0.76171 v -0.91467 c 0.03387,-0.3048 0.01657,-0.60935 -0.05116,-0.91415 -0.372534,0 -0.711159,-0.23746 -1.015959,-0.71159 -0.3048,-0.508 -0.440044,-0.98187 -0.406177,-1.42213 0,-0.7112 0.186089,-1.26999 0.558622,-1.67639 0.372534,-0.44026 0.829626,-0.74534 1.371493,-0.91467 0.4064,-0.127 0.831908,-0.18722 1.276408,-0.18087 z m 1.314648,3.2799 9.347233,3.60702 -9.347233,6.19755 z"
       style="font-size:192px;white-space:pre;shape-inside:url(#rect1-52);display:inline;fill:#365b6d"
       id="path40" />
    <path
       d="m 159.76061,249.24225 -9.34724,3.14968 -2.89543,4.06384 -2.69234,13.81776 0.76171,4.67361 7.11223,-2.53989 -2.38745,-6.55361 h 6.85798 l -2.79415,9.0935 h 6.85798 l 1.32085,-2.89543 z m -2.56118,4.68665 0.34482,8.22825 -8.1676,-0.37418 3.55675,-4.80232 z"
       style="font-size:192px;white-space:pre;shape-inside:url(#rect1-52-4);display:inline;fill:#365b6d"
       id="path39"
       sodipodi:nodetypes="ccccccccccccccccc" />
    <text
       xml:space="preserve"
       transform="matrix(0.26458333,0,0,0.26458333,13.962651,165.04875)"
       id="text1-6-8-6"
       style="font-size:192px;text-align:start;writing-mode:lr-tb;direction:ltr;white-space:pre;shape-inside:url(#rect1-52-4-52);display:inline;fill:#365b6d;fill-opacity:1"><tspan
         x="107.45898"
         y="269.55805"
         id="tspan11"><tspan
           style="font-family:'JI Burrito';-inkscape-font-specification:'JI Burrito'"
           id="tspan10">Potiteca</tspan></tspan></text>
    <path
       d="m 42.964303,249.46591 -2.6417,2.79414 0.152446,0.10129 -2.641699,3.40393 -0.609266,4.36872 0.355534,9.65161 3.606499,4.57233 h 6.959781 l 5.994467,-4.36873 0.558622,-8.58552 v -4.82606 L 50.07653,250.7356 Z"
       style="font-size:192px;white-space:pre;shape-inside:url(#rect1-52-4-5);display:inline;fill:#365b6d"
       id="path42" />
    <path
       d="m 44.335991,254.49518 -2.59054,7.21352 0.15244,1.1684 c 0.0339,0.0339 0.0847,0.11878 0.15245,0.25425 v 0.20309 l 0.10129,0.50798 c 0.2032,0.64346 0.60944,1.10056 1.21904,1.37149 0.64347,0.23707 1.27039,0.30469 1.87999,0.20309 0.64347,-0.1016 1.18496,-0.38938 1.62523,-0.86352 0.44026,-0.508 0.55925,-1.16847 0.35605,-1.98127 0.0677,-0.37253 0.0169,-0.69438 -0.15245,-0.96532 -0.13547,-0.27093 -0.33885,-0.47379 -0.60978,-0.60926 -0.27094,-0.16933 -0.57549,-0.25425 -0.91416,-0.25425 -0.33866,0 -0.66051,0.0681 -0.96531,0.20361 -0.13547,-0.0339 -0.27123,-0.0171 -0.4067,0.0506 -0.13546,0.0339 -0.18631,0.13556 -0.15244,0.30489 0.0677,0.27093 0.1018,0.57549 0.1018,0.91416 0.0339,0.33866 0.1864,0.55882 0.45734,0.66042 h 0.40617 l 0.0506,-0.60978 c 0,-0.16933 0.0508,-0.2878 0.15244,-0.35553 0.13547,-0.1016 0.25445,-0.15245 0.35605,-0.15245 0.13547,0 0.25394,0.0508 0.35554,0.15245 0.1016,0.1016 0.15244,0.23736 0.15244,0.40669 0.0677,0.33867 0.0337,0.67729 -0.1018,1.01596 -0.1016,0.3048 -0.33854,0.49089 -0.71107,0.55862 -0.47413,0.1016 -0.93174,0.034 -1.37201,-0.20309 -0.44026,-0.23707 -0.65991,-0.62654 -0.65991,-1.1684 -0.1016,-0.23707 -0.16973,-0.50807 -0.2036,-0.81287 -0.0339,-0.3048 2e-4,-0.59258 0.1018,-0.86352 0.1016,-0.27093 0.25414,-0.49109 0.45734,-0.66042 0.2032,-0.2032 0.4742,-0.28812 0.81287,-0.25425 0.44026,-0.2032 0.89736,-0.27082 1.37149,-0.20309 0.47413,0.0339 0.89716,0.16963 1.26969,0.4067 0.4064,0.23706 0.71147,0.5584 0.91467,0.9648 0.23707,0.4064 0.33876,0.864 0.30489,1.372 0.2032,0.88054 0.11829,1.62541 -0.25424,2.23501 -0.33867,0.57573 -0.81254,1.01605 -1.42214,1.32085 -0.6096,0.3048 -1.28737,0.45734 -2.03243,0.45734 -0.74507,0 -1.40503,-0.18661 -1.98076,-0.55914 l 0.86351,4.26744 6.04511,-0.55863 1.11776,-11.3285 z"
       style="font-size:192px;white-space:pre;shape-inside:url(#rect1-52-4-5);display:inline;fill:#dee3db"
       id="path37" />
    <text
       xml:space="preserve"
       transform="matrix(0.26458333,0,0,0.26458333,133.68774,255.44057)"
       id="text1-6-2"
       style="font-size:42.6667px;text-align:start;writing-mode:lr-tb;direction:ltr;white-space:pre;shape-inside:url(#rect1-52-3);shape-padding:0;display:inline;fill:#365b6d;fill-opacity:1"><tspan
         x="107.45898"
         y="133.31675"
         id="tspan13"><tspan
           style="font-family:'JI Burrito';-inkscape-font-specification:'JI Burrito'"
           id="tspan12">JI Burrito</tspan></tspan></text>
    <text
       xml:space="preserve"
       transform="scale(0.26458333)"
       id="text2"
       style="fill:#000000;text-align:start;writing-mode:lr-tb;text-orientation:auto;direction:ltr;white-space:pre;shape-inside:url(#rect2)" />
    <path
       style="fill:#365b6d;fill-opacity:1;stroke-width:0.308049;stroke-dasharray:none"
       d="m 156.26823,102.8941 c -0.66218,-0.62836 -0.95052,-1.39491 -1.81392,-4.822362 -0.56462,-2.241381 -1.10322,-4.165423 -1.19688,-4.275646 -0.0937,-0.110225 -2.90764,0.170937 -6.25329,0.624806 -6.57874,0.892466 -7.80746,0.920242 -8.26681,0.186886 -0.44964,-0.717825 0.0784,-1.342729 1.66337,-1.968513 l 1.37322,-0.542179 2.64368,-9.238398 c 1.45403,-5.081117 2.84769,-9.602031 3.09702,-10.046475 0.84122,-1.499516 3.16384,-1.538838 4.08171,-0.06911 0.20649,0.330647 1.49901,3.964226 2.87226,8.074615 2.37228,7.100644 2.52936,7.470963 3.14891,7.423851 0.35864,-0.02727 1.45373,-0.13381 2.43354,-0.236754 2.29978,-0.241623 2.83116,0.168685 2.62197,2.024586 -0.17289,1.533914 -1.04966,2.364393 -2.76825,2.622114 -0.67521,0.101253 -1.22766,0.269171 -1.22766,0.373147 0,0.103976 0.55358,1.710002 1.23018,3.568948 0.67661,1.858944 1.39914,4.024034 1.60563,4.811294 0.5158,1.9665 0.22099,2.23632 -2.44341,2.23632 -1.82502,0 -2.08778,-0.0701 -2.80127,-0.74713 z m -4.08828,-13.181936 c 0.0875,-0.03442 -0.4573,-2.782057 -1.21066,-6.105853 -0.75336,-3.323796 -1.4506,-5.952326 -1.54943,-5.841177 -0.18169,0.204322 -2.97595,12.437732 -2.9711,13.007604 0.002,0.2075 0.91199,0.09486 2.78737,-0.344934 1.53161,-0.35918 2.85633,-0.681218 2.94382,-0.71564 z"
       id="path96" />
    <text
       xml:space="preserve"
       style="font-size:11.2889px;font-family:Abocat;-inkscape-font-specification:Abocat;text-align:start;writing-mode:lr-tb;direction:ltr;text-anchor:start;fill:#000080;stroke-width:0.3"
       x="111.87902"
       y="257.43402"
       id="text16"><tspan
         sodipodi:role="line"
         id="tspan16"
         style="stroke-width:0.3"
         x="111.87902"
         y="257.43402" /></text>
    <text
       xml:space="preserve"
       style="font-style:normal;font-variant:normal;font-weight:normal;font-stretch:normal;font-size:50.8px;font-family:'JI Burrito';-inkscape-font-specification:'JI Burrito';text-align:start;writing-mode:lr-tb;direction:ltr;text-anchor:start;fill:#000080;stroke-width:0.3"
       x="179.79221"
       y="237.41551"
       id="text17"><tspan
         sodipodi:role="line"
         id="tspan17"
         style="font-style:normal;font-variant:normal;font-weight:normal;font-stretch:normal;font-size:50.8px;font-family:'JI Burrito';-inkscape-font-specification:'JI Burrito';stroke-width:0.3"
         x="179.79221"
         y="237.41551" /></text>
    <path
       d="m 132.27718,249.32898 -4.06383,3.30161 0.25373,22.35212 h 5.38468 l 8.68681,-3.55585 -2.79363,-5.99447 -5.89318,3.45457 -1.21905,-13.30978 5.63894,1.62574 -1.67639,1.37149 4.01319,2.99723 1.93012,-5.94382 z"
       style="font-size:50.8px;font-family:'JI Burrito';-inkscape-font-specification:'JI Burrito';fill:#365b6d;fill-opacity:1;stroke-width:0.3"
       id="path35" />
    <path
       d="m 101.06255,274.47273 23.2296,0.43287 1.90321,-3.85872 -1.90851,-10.94955 -6.70412,-1.10147 4.25716,11.69618 -6.62017,-0.79118 0.37393,-6.44096 -5.32509,-0.30915 -0.37392,6.44097 -4.14532,1.28584 4.25648,-11.96544 -5.49545,-0.87859 -2.98262,8.42631 z"
       style="font-size:50.8px;font-family:'JI Burrito';-inkscape-font-specification:'JI Burrito';fill:#365b6d;fill-opacity:1;stroke-width:0.3"
       id="path34" />
    <path
       d="m 103.95504,249.38333 1.58758,23.17933 4.00952,1.56067 10.74226,-2.85288 0.51467,-6.77448 -11.28195,5.25753 0.21285,-6.66388 6.44909,-0.18725 -0.15481,-5.33181 -6.4491,0.18726 -1.64123,-4.0179 12.29009,3.20051 0.39767,-5.55102 -8.65364,-2.23903 z"
       style="font-size:50.8px;font-family:'JI Burrito';-inkscape-font-specification:'JI Burrito';fill:#365b6d;fill-opacity:0;stroke-width:0.3"
       id="path34-2" />
    <path
       d="m 102.70534,248.61636 -15.697229,0.40669 -1.21956,6.04511 5.79137,-1.57509 1.87947,8.53436 -3.3016,6.75669 -1.27021,5.53713 h 8.585007 l -2.184367,-4.16564 3.149677,-9.09298 -2.387447,-7.56956 4.826059,3.04839 z"
       style="font-size:50.8px;font-family:'JI Burrito';-inkscape-font-specification:'JI Burrito';fill:#365b6d;fill-opacity:1;stroke-width:0.3"
       id="path33" />
    <path
       d="m 83.527526,243.45579 c -0.06494,0.22179 -0.162704,0.435 -0.293542,0.63912 -0.01288,0.34011 -0.134184,0.59638 -0.363289,0.76979 -0.195605,0.17804 -0.43461,0.29894 -0.716917,0.36241 -0.282306,0.0635 -0.572039,0.0577 -0.869311,-0.0176 -0.297267,-0.0754 -0.556443,-0.17953 -0.777323,-0.31269 -0.536747,-0.0743 -0.892334,-0.34583 -1.066764,-0.81446 -0.174429,-0.46863 -0.178633,-0.93119 -0.01295,-1.3869 0.118166,-0.35972 0.335041,-0.56889 0.650897,-0.62771 0.354042,-0.0877 0.694074,-0.0745 1.020239,0.039 0.167739,0.0232 0.295315,0.0917 0.382014,0.20628 0.0867,0.11457 0.120737,0.23941 0.102152,0.3736 -0.01394,0.10064 -0.08051,0.21101 -0.199772,0.33126 -0.081,0.0914 -0.205352,0.12545 -0.373091,0.10222 l -0.610957,-0.0335 -0.05572,0.40233 c 0.06347,0.28232 0.260624,0.46361 0.591445,0.54362 0.335458,0.0465 0.632976,0.12209 0.892057,0.22632 0.163078,0.0568 0.270284,0.0203 0.322405,-0.10925 0.08564,-0.1249 0.121405,-0.257 0.106509,-0.39583 0.176003,-0.28333 0.287066,-0.59235 0.333525,-0.92781 0.04646,-0.33546 0.0042,-0.6493 -0.126365,-0.94091 -0.09701,-0.28695 -0.270063,-0.51624 -0.519847,-0.68759 -0.245149,-0.2049 -0.557041,-0.29891 -0.935351,-0.28293 -0.839683,-0.35561 -1.54621,-0.31693 -2.119097,0.11658 -0.539347,0.43815 -0.890902,1.00491 -1.055568,1.70009 -0.131146,0.69983 -0.05631,1.39391 0.224428,2.08239 0.28538,0.65494 0.847393,1.04077 1.686059,1.15692 0.163078,0.0568 0.268855,0.15662 0.31736,0.3001 0.05312,0.10993 0.05351,0.22959 0.0013,0.35911 -0.01394,0.10064 -0.09485,0.1921 -0.242996,0.27415 -0.114578,0.0867 -0.253728,0.10183 -0.416812,0.0451 l -0.640219,-0.19145 c -0.935677,-0.4031 -1.546488,-1.05181 -1.832895,-1.94623 -0.248212,-0.92331 -0.22813,-1.80957 0.06039,-2.65855 0.293172,-0.88252 0.797766,-1.56462 1.514134,-2.04663 0.754555,-0.51092 1.669595,-0.57258 2.744106,-0.18443 0.507848,0.0361 0.946665,0.19955 1.316697,0.49015 0.374681,0.25703 0.651637,0.60337 0.830704,1.03845 0.183723,0.40153 0.25965,0.83911 0.228156,1.31341 0.0011,0.23948 -0.03091,0.47027 -0.09585,0.69206 z"
       style="font-size:50.8px;font-family:'JI Burrito';-inkscape-font-specification:'JI Burrito';fill:#365b6d;fill-opacity:1;stroke-width:0.3"
       id="path31" />
    <path
       d="m 79.540354,248.61636 -2.84479,8.43308 -1.26969,6.04511 3.55586,6.50244 -1.72755,4.72426 h 6.80734 v -4.21628 l -3.65766,-8.83925 3.30212,-8.28063 z"
       style="font-size:50.8px;font-family:'JI Burrito';-inkscape-font-specification:'JI Burrito';fill:#365b6d;fill-opacity:1;stroke-width:0.3"
       id="path23" />
    <path
       d="m 74.105024,248.61636 -15.69723,0.40669 -1.21957,6.04511 5.79138,-1.57509 1.87947,8.53436 -3.3016,6.75669 -1.27021,5.53713 h 8.58501 l -2.18437,-4.16564 3.14968,-9.09298 -2.38745,-7.56956 4.82606,3.04839 z"
       style="font-size:50.8px;font-family:'JI Burrito';-inkscape-font-specification:'JI Burrito';fill:#365b6d;fill-opacity:1;stroke-width:0.3"
       id="path22" />
  </g>
</svg>
