<?xml version="1.0" encoding="UTF-8" standalone="no"?>
<!-- Generator: Adobe Illustrator 15.1.0, SVG Export Plug-In . SVG Version: 6.00 Build 0)  -->

<svg
   version="1.1"
   id="Camada_1"
   x="0px"
   y="0px"
   width="612px"
   height="792px"
   viewBox="0 0 612 792"
   enable-background="new 0 0 612 792"
   xml:space="preserve"
   sodipodi:docname="potiteca.svg"
   inkscape:version="1.3.2 (091e20e, 2023-11-25, custom)"
   xmlns:inkscape="http://www.inkscape.org/namespaces/inkscape"
   xmlns:sodipodi="http://sodipodi.sourceforge.net/DTD/sodipodi-0.dtd"
   xmlns:xlink="http://www.w3.org/1999/xlink"
   xmlns="http://www.w3.org/2000/svg"
   xmlns:svg="http://www.w3.org/2000/svg"><defs
   id="defs51"><clipPath
     clipPathUnits="userSpaceOnUse"
     id="clipPath55"><g
       id="g56"><use
         x="0"
         y="0"
         xlink:href="#g53"
         id="use55"
         transform="translate(58.133987,5.1255023)" /></g></clipPath></defs><sodipodi:namedview
   id="namedview51"
   pagecolor="#ffffff"
   bordercolor="#000000"
   borderopacity="0.25"
   inkscape:showpageshadow="2"
   inkscape:pageopacity="0.0"
   inkscape:pagecheckerboard="0"
   inkscape:deskcolor="#d1d1d1"
   showgrid="false"
   inkscape:zoom="1.8534769"
   inkscape:cx="306.45109"
   inkscape:cy="157.81152"
   inkscape:window-width="1366"
   inkscape:window-height="697"
   inkscape:window-x="-8"
   inkscape:window-y="-8"
   inkscape:window-maximized="1"
   inkscape:current-layer="Camada_1" />
<rect
   x="74"
   y="65"
   fill="none"
   width="196"
   height="115"
   id="rect1" />
<text
   transform="matrix(1 0 0 1 74 95.3599)"
   font-family="'JIBurrito'"
   font-size="60"
   id="text1">Potiteca</text>
<rect
   x="69"
   y="206"
   fill="none"
   width="237"
   height="75"
   id="rect2" />
<text
   font-family="OsllaRegular"
   font-size="48px"
   id="text2"
   x="65.76284"
   y="294.64792">POTITECA</text>
<rect
   x="395.59"
   y="207.517"
   fill="none"
   width="148"
   height="75"
   id="rect3" />
<text
   font-family="OsllaRegular"
   font-size="48px"
   id="text3"
   x="399.36649"
   y="295.08597">POTI</text>
<path
   fill="#E94E1B"
   d="M368.679,62.905l9.66,4.14l-1.379,19.08l-15.48,6.9v13.26h-7.439l-0.541-39.24L368.679,62.905z"
   id="path3" />
<path
   fill="#E94E1B"
   d="M403.778,76.405l18.541-0.48l-2.16,9.36l-5.7-3.6l2.819,8.94l-3.72,10.74l2.58,4.92h-10.14l1.5-6.54  l3.9-7.98l-2.221-10.08l-6.84,1.86L403.778,76.405z"
   id="path4" />
<path
   d="m 332.12679,93.503256 v -6.82 l -9.777,3.512 0.392,-0.02 c -0.392,0.02 0,0 -0.392,0.02 -0.424,0.077 0.823,0 0.392,-0.02 -1.015,0.086 0.51,0.469 -0.392,0.02 l -5.072,-1.828 -5.343,-1.698 v 7.051 z"
   id="path5" />
<path
   fill="#e94e1b"
   d="m 423.878,93.025 1.5,-7.14 3.36,-9.96 4.92,5.16 -3.899,9.78 4.319,10.44 v 4.98 h -8.04 l 2.04,-5.58 z m 6.9,-25.92 c 0.08,0.4 0.05,0.791 -0.09,1.17 -0.141,0.38 -0.431,0.61 -0.87,0.69 -0.561,0.12 -1.101,0.04 -1.62,-0.24 -0.52,-0.279 -0.779,-0.74 -0.779,-1.38 -0.121,-0.279 -0.201,-0.6 -0.24,-0.96 -0.041,-0.36 0,-0.7 0.119,-1.02 0.121,-0.32 0.301,-0.59 0.541,-0.81 0.239,-0.219 0.559,-0.31 0.959,-0.27 0.52,-0.24 1.061,-0.33 1.621,-0.27 0.559,0.06 1.068,0.23 1.529,0.51 0.459,0.28 0.819,0.66 1.08,1.14 0.26,0.48 0.369,1.02 0.33,1.62 0.279,1.32 0.069,2.37 -0.63,3.15 -0.7,0.78 -1.581,1.271 -2.64,1.47 -1.061,0.201 -2.101,0.07 -3.121,-0.39 -1.02,-0.459 -1.689,-1.27 -2.01,-2.43 l -0.119,-0.78 c -0.041,-0.2 0,-0.37 0.119,-0.51 0.12,-0.14 0.25,-0.219 0.391,-0.24 0.139,-0.02 0.279,0.01 0.42,0.09 0.14,0.081 0.229,0.22 0.27,0.42 0,1 0.369,1.721 1.11,2.16 0.739,0.441 1.53,0.63 2.37,0.57 0.84,-0.06 1.56,-0.379 2.16,-0.96 0.6,-0.579 0.759,-1.389 0.479,-2.43 0.079,-0.44 0.03,-0.819 -0.149,-1.14 -0.181,-0.32 -0.431,-0.57 -0.75,-0.75 -0.321,-0.18 -0.682,-0.27 -1.08,-0.27 -0.4,0 -0.78,0.081 -1.141,0.24 -0.16,-0.04 -0.32,-0.03 -0.48,0.03 -0.16,0.06 -0.22,0.19 -0.18,0.39 0.08,0.32 0.13,0.681 0.15,1.08 0.02,0.4 0.189,0.66 0.51,0.78 h 0.48 l 0.06,-0.72 c 0,-0.199 0.069,-0.35 0.21,-0.45 0.141,-0.1 0.27,-0.15 0.391,-0.15 0.159,0 0.3,0.06 0.42,0.18 0.12,0.12 0.18,0.28 0.18,0.48 z"
   id="path6"
   sodipodi:nodetypes="cccccccccccccccccscccccccccccccccsccccscscscccsssc" />
<path
   d="M352.399,112.511h4.219c0.801,0,1.406,0.083,1.816,0.249s0.726,0.406,0.946,0.721s0.331,0.679,0.331,1.093  c0,0.426-0.107,0.804-0.323,1.134s-0.525,0.59-0.931,0.779c-0.406,0.189-0.943,0.288-1.613,0.296l2.164,2.637  c0.176,0.218,0.291,0.353,0.346,0.404c0.137,0.121,0.279,0.213,0.43,0.275s0.32,0.094,0.508,0.094h0.146v0.492h-1.862l-3.005-3.902  h-1.051v2.52c0,0.281,0.01,0.457,0.029,0.527c0.043,0.133,0.112,0.227,0.208,0.281s0.282,0.082,0.56,0.082h0.211v0.492h-3.129  v-0.492h0.281c0.211,0,0.353-0.014,0.425-0.041s0.137-0.075,0.193-0.144s0.097-0.155,0.12-0.261c0.008-0.043,0.014-0.24,0.018-0.592  v-5.35c0-0.238-0.023-0.408-0.07-0.511s-0.112-0.178-0.196-0.223s-0.229-0.068-0.437-0.068h-0.334V112.511z M354.521,113.15v3.076  h1.684c0.572,0,0.973-0.035,1.203-0.105c0.329-0.094,0.588-0.266,0.777-0.516c0.19-0.25,0.285-0.568,0.285-0.955  c0-0.328-0.068-0.604-0.205-0.829s-0.324-0.393-0.561-0.504s-0.59-0.167-1.06-0.167H354.521z"
   id="path7" />
<path
   d="M365.911,119.173l0.375,0.305c-0.285,0.34-0.562,0.609-0.829,0.809s-0.521,0.339-0.759,0.419s-0.518,0.12-0.838,0.12  c-0.574,0-1.063-0.117-1.465-0.352c-0.461-0.27-0.814-0.621-1.061-1.055s-0.369-0.945-0.369-1.535c0-0.617,0.119-1.145,0.357-1.582  s0.571-0.782,0.999-1.034s0.923-0.378,1.485-0.378c0.418,0,0.781,0.065,1.09,0.196s0.57,0.328,0.785,0.59  c0.215,0.263,0.371,0.564,0.469,0.903c0.055,0.199,0.086,0.456,0.094,0.771h-4.143c-0.012,0.192-0.018,0.335-0.018,0.429  c0,0.493,0.086,0.933,0.258,1.318c0.172,0.386,0.399,0.669,0.683,0.852s0.604,0.273,0.964,0.273c0.305,0,0.6-0.071,0.885-0.214  S365.505,119.587,365.911,119.173z M365.161,116.806c-0.059-0.359-0.142-0.625-0.249-0.797s-0.26-0.309-0.457-0.41  s-0.419-0.152-0.665-0.152s-0.477,0.051-0.691,0.152s-0.394,0.242-0.536,0.422s-0.267,0.441-0.372,0.785H365.161z"
   id="path8" />
<path
   d="M367.077,115.869v-0.486c0.293,0,0.553-0.037,0.779-0.11s0.475-0.201,0.744-0.382h0.463v0.979  c0.488-0.387,0.895-0.646,1.219-0.779s0.648-0.199,0.973-0.199c0.668,0,1.237,0.262,1.708,0.785s0.706,1.205,0.706,2.045  c0,0.93-0.268,1.691-0.803,2.285c-0.488,0.547-1.117,0.82-1.887,0.82c-0.383,0-0.742-0.072-1.078-0.217  c-0.242-0.102-0.521-0.283-0.838-0.545v1.928c0,0.289,0.008,0.459,0.023,0.51c0.02,0.074,0.059,0.137,0.117,0.188  s0.133,0.084,0.223,0.1c0.066,0.012,0.289,0.018,0.668,0.018v0.492h-3.018v-0.492h0.264c0.27,0,0.444-0.021,0.524-0.062  s0.14-0.104,0.179-0.19c0.023-0.066,0.035-0.27,0.035-0.609v-6.076H367.077z M369.063,116.472v2.016  c0,0.266,0.016,0.463,0.047,0.592c0.047,0.199,0.137,0.379,0.271,0.539s0.318,0.297,0.551,0.41c0.231,0.113,0.475,0.17,0.729,0.17  c0.506,0,0.945-0.191,1.318-0.574s0.559-0.963,0.559-1.74c0-0.727-0.154-1.288-0.462-1.685s-0.673-0.595-1.095-0.595  c-0.272,0-0.568,0.072-0.889,0.217C369.773,115.966,369.431,116.183,369.063,116.472z"
   id="path9" />
<path
   d="M377.536,114.89c0.574,0,1.071,0.119,1.491,0.357s0.751,0.586,0.993,1.043s0.363,0.979,0.363,1.564  s-0.124,1.107-0.372,1.564s-0.586,0.806-1.014,1.046s-0.938,0.36-1.532,0.36c-0.945,0-1.655-0.295-2.13-0.885  s-0.712-1.283-0.712-2.08c0-0.582,0.123-1.099,0.369-1.55s0.591-0.801,1.034-1.049S376.974,114.89,377.536,114.89z M377.489,115.458  c-0.445,0-0.822,0.176-1.131,0.527c-0.391,0.438-0.586,1.074-0.586,1.91c0,0.805,0.166,1.418,0.498,1.84  c0.301,0.375,0.709,0.563,1.225,0.563c0.332,0,0.628-0.088,0.888-0.264s0.47-0.456,0.63-0.841s0.24-0.837,0.24-1.356  c0-0.508-0.086-0.963-0.258-1.365c-0.133-0.32-0.333-0.569-0.601-0.747S377.825,115.458,377.489,115.458z"
   id="path10" />
<path
   d="M385.265,115.031h0.411l0.526,1.793L385.675,117c-0.211-0.48-0.507-0.858-0.888-1.134s-0.767-0.413-1.157-0.413  c-0.301,0-0.545,0.073-0.732,0.22s-0.281,0.315-0.281,0.507c0,0.18,0.068,0.334,0.205,0.463c0.133,0.133,0.432,0.283,0.896,0.451  l1.143,0.404c0.645,0.23,1.084,0.477,1.318,0.738c0.23,0.266,0.346,0.566,0.346,0.902c0,0.285-0.086,0.56-0.258,0.823  s-0.421,0.474-0.747,0.63s-0.7,0.234-1.122,0.234c-0.656,0-1.219-0.188-1.688-0.563l-0.123,0.423h-0.417l-0.731-1.916l0.527-0.211  c0.355,0.563,0.692,0.961,1.01,1.195c0.441,0.332,0.919,0.498,1.432,0.498c0.34,0,0.62-0.091,0.84-0.272  c0.219-0.182,0.328-0.384,0.328-0.606c0-0.184-0.068-0.352-0.205-0.504c-0.141-0.148-0.41-0.293-0.809-0.434l-1.354-0.492  c-0.582-0.211-0.986-0.441-1.213-0.691s-0.34-0.537-0.34-0.861c0-0.395,0.185-0.743,0.554-1.046s0.839-0.454,1.409-0.454  c0.297,0,0.563,0.038,0.797,0.115c0.234,0.076,0.465,0.203,0.691,0.378L385.265,115.031z"
   id="path11" />
<path
   d="M387.491,115.869v-0.486c0.324-0.039,0.597-0.093,0.817-0.162s0.472-0.18,0.753-0.33h0.428v4.699  c0,0.164,0.023,0.287,0.07,0.369s0.112,0.142,0.196,0.179s0.237,0.056,0.46,0.056h0.275v0.492h-3v-0.492h0.24  c0.262,0,0.438-0.023,0.527-0.07s0.153-0.113,0.19-0.199s0.056-0.287,0.056-0.604v-3.451H387.491z M388.979,112.248  c0.188,0,0.348,0.065,0.48,0.196s0.199,0.29,0.199,0.478s-0.066,0.348-0.199,0.48s-0.293,0.199-0.48,0.199s-0.348-0.066-0.48-0.199  s-0.199-0.293-0.199-0.48s0.066-0.347,0.199-0.478S388.792,112.248,388.979,112.248z"
   id="path12" />
<path
   d="M392.683,113.039h0.416v1.992h1.74v0.586h-1.74v3.533c0,0.301,0.026,0.516,0.079,0.645s0.143,0.234,0.27,0.316  s0.269,0.123,0.425,0.123c0.371,0,0.781-0.166,1.23-0.498v0.568c-0.513,0.348-1.031,0.521-1.556,0.521  c-0.298,0-0.567-0.066-0.808-0.199s-0.404-0.289-0.492-0.469c-0.089-0.18-0.133-0.492-0.133-0.938v-3.604h-1.025v-0.492  c0.329-0.074,0.595-0.189,0.797-0.346c0.201-0.156,0.365-0.359,0.491-0.609C392.502,113.919,392.604,113.542,392.683,113.039z"
   id="path13" />
<path
   d="M398.653,114.89c0.574,0,1.071,0.119,1.491,0.357s0.751,0.586,0.993,1.043s0.363,0.979,0.363,1.564  s-0.124,1.107-0.372,1.564s-0.586,0.806-1.014,1.046s-0.938,0.36-1.532,0.36c-0.945,0-1.655-0.295-2.13-0.885  s-0.712-1.283-0.712-2.08c0-0.582,0.123-1.099,0.369-1.55s0.591-0.801,1.034-1.049S398.091,114.89,398.653,114.89z M398.606,115.458  c-0.445,0-0.822,0.176-1.131,0.527c-0.391,0.438-0.586,1.074-0.586,1.91c0,0.805,0.166,1.418,0.498,1.84  c0.301,0.375,0.709,0.563,1.225,0.563c0.332,0,0.628-0.088,0.888-0.264s0.47-0.456,0.63-0.841s0.24-0.837,0.24-1.356  c0-0.508-0.086-0.963-0.258-1.365c-0.133-0.32-0.333-0.569-0.601-0.747S398.942,115.458,398.606,115.458z M397.663,113.83v-0.205  l1.084-0.797c0.371-0.273,0.682-0.41,0.932-0.41c0.117,0,0.216,0.042,0.296,0.126s0.12,0.188,0.12,0.313  c0,0.152-0.055,0.278-0.164,0.378s-0.307,0.181-0.592,0.243L397.663,113.83z"
   id="path14" />
<path
   d="M402.409,115.869v-0.486c0.284-0.023,0.537-0.07,0.76-0.142c0.222-0.072,0.475-0.188,0.76-0.351h0.438v1.107  c0.277-0.34,0.6-0.609,0.967-0.809s0.697-0.299,0.99-0.299c0.289,0,0.518,0.068,0.686,0.205s0.252,0.303,0.252,0.498  c0,0.141-0.056,0.265-0.167,0.372s-0.245,0.161-0.401,0.161c-0.07,0-0.131-0.01-0.182-0.029s-0.125-0.063-0.223-0.129  c-0.215-0.141-0.395-0.211-0.539-0.211c-0.195,0-0.41,0.082-0.645,0.246c-0.297,0.211-0.529,0.418-0.697,0.621v2.701  c0,0.234,0.013,0.394,0.038,0.478s0.067,0.156,0.126,0.217s0.131,0.104,0.217,0.132s0.236,0.041,0.451,0.041h0.193v0.492h-3.029  v-0.492h0.252c0.238,0,0.395-0.021,0.469-0.064c0.102-0.059,0.177-0.14,0.226-0.243s0.073-0.29,0.073-0.56v-3.457H402.409z"
   id="path15" />
<path
   d="M407.647,115.869v-0.486c0.324-0.039,0.597-0.093,0.817-0.162s0.472-0.18,0.753-0.33h0.428v4.699  c0,0.164,0.023,0.287,0.07,0.369s0.112,0.142,0.196,0.179s0.237,0.056,0.46,0.056h0.275v0.492h-3v-0.492h0.24  c0.262,0,0.438-0.023,0.527-0.07s0.153-0.113,0.19-0.199s0.056-0.287,0.056-0.604v-3.451H407.647z M409.136,112.248  c0.188,0,0.348,0.065,0.48,0.196s0.199,0.29,0.199,0.478s-0.066,0.348-0.199,0.48s-0.293,0.199-0.48,0.199s-0.348-0.066-0.48-0.199  s-0.199-0.293-0.199-0.48s0.066-0.347,0.199-0.478S408.948,112.248,409.136,112.248z"
   id="path16" />
<path
   d="M414.251,114.89c0.574,0,1.071,0.119,1.491,0.357s0.751,0.586,0.993,1.043s0.363,0.979,0.363,1.564  s-0.124,1.107-0.372,1.564s-0.586,0.806-1.014,1.046s-0.938,0.36-1.532,0.36c-0.945,0-1.655-0.295-2.13-0.885  s-0.712-1.283-0.712-2.08c0-0.582,0.123-1.099,0.369-1.55s0.591-0.801,1.034-1.049S413.688,114.89,414.251,114.89z M414.204,115.458  c-0.445,0-0.822,0.176-1.131,0.527c-0.391,0.438-0.586,1.074-0.586,1.91c0,0.805,0.166,1.418,0.498,1.84  c0.301,0.375,0.709,0.563,1.225,0.563c0.332,0,0.628-0.088,0.888-0.264s0.47-0.456,0.63-0.841s0.24-0.837,0.24-1.356  c0-0.508-0.086-0.963-0.258-1.365c-0.133-0.32-0.333-0.569-0.601-0.747S414.54,115.458,414.204,115.458z"
   id="path17" />
<path
   d="M425.022,112.511h0.959l2.544,6.833c0.125,0.343,0.251,0.57,0.378,0.682c0.127,0.111,0.298,0.167,0.513,0.167h0.129v0.492  h-2.909v-0.492c0.094-0.008,0.186-0.012,0.275-0.012c0.188,0,0.311-0.02,0.369-0.059c0.113-0.074,0.17-0.168,0.17-0.281  c0-0.082-0.055-0.283-0.164-0.604l-0.541-1.582h-2.961l-0.637,1.77c-0.067,0.184-0.1,0.311-0.1,0.381  c0,0.078,0.02,0.146,0.061,0.205s0.098,0.103,0.168,0.132s0.184,0.044,0.34,0.044c0.105,0,0.19,0.002,0.258,0.006v0.492h-2.444  v-0.492c0.227,0,0.39-0.022,0.489-0.067s0.187-0.117,0.261-0.217s0.172-0.31,0.293-0.63L425.022,112.511z M423.991,117.082h2.524  l-1.258-3.516L423.991,117.082z"
   id="path18" />
<path
   style="fill:#ffffff;fill-opacity:1"
   d="m 360.53862,71.622151 8.22778,-2.158106 5.12551,2.562751 -0.53953,9.84636 -12.67887,4.451094 z"
   id="path56" /><path
   d="M435.192,119.05l0.375,0.305c-0.734,0.98-1.615,1.471-2.643,1.471c-0.801,0-1.477-0.285-2.027-0.855  s-0.826-1.279-0.826-2.127c0-0.566,0.128-1.075,0.384-1.526s0.611-0.802,1.066-1.052s0.978-0.375,1.567-0.375  c0.672,0,1.232,0.165,1.682,0.495s0.674,0.663,0.674,0.999c0,0.18-0.053,0.318-0.158,0.416s-0.225,0.146-0.357,0.146  c-0.07,0-0.139-0.018-0.205-0.053s-0.135-0.092-0.205-0.17c-0.031-0.035-0.088-0.145-0.17-0.328  c-0.105-0.227-0.188-0.379-0.246-0.457c-0.121-0.156-0.271-0.279-0.448-0.369s-0.376-0.135-0.595-0.135  c-0.332,0-0.64,0.092-0.923,0.275s-0.508,0.454-0.674,0.812s-0.249,0.784-0.249,1.28c0,0.77,0.205,1.381,0.615,1.834  c0.355,0.391,0.779,0.586,1.271,0.586c0.227,0,0.456-0.038,0.688-0.114s0.452-0.188,0.659-0.337  C434.601,119.666,434.849,119.425,435.192,119.05z"
   id="path19" />
<path
   d="M440.471,117.292l0.001-0.639c0-0.434-0.121-0.743-0.364-0.929s-0.585-0.278-1.027-0.278c-0.22,0-0.411,0.026-0.575,0.079  s-0.297,0.125-0.396,0.217s-0.174,0.196-0.221,0.313c-0.02,0.043-0.066,0.209-0.141,0.498c-0.09,0.352-0.271,0.527-0.545,0.527  c-0.156,0-0.282-0.052-0.378-0.155s-0.144-0.243-0.144-0.419c0-0.258,0.096-0.511,0.287-0.759s0.483-0.453,0.876-0.615  s0.856-0.243,1.392-0.243c0.5,0,0.928,0.077,1.283,0.231c0.355,0.154,0.617,0.376,0.785,0.665c0.117,0.199,0.176,0.562,0.176,1.089  v2.253c0,0.32,0.01,0.529,0.029,0.626c0.043,0.168,0.118,0.294,0.226,0.377c0.107,0.084,0.247,0.126,0.419,0.126  c0.18,0,0.395-0.042,0.645-0.124v0.511c-0.324,0.094-0.615,0.141-0.873,0.141c-0.277,0-0.511-0.039-0.7-0.117  s-0.345-0.192-0.466-0.343s-0.199-0.329-0.234-0.536c-0.469,0.367-0.893,0.625-1.271,0.773s-0.762,0.223-1.148,0.223  c-0.539,0-0.977-0.146-1.313-0.439s-0.504-0.637-0.504-1.031c0-0.238,0.062-0.465,0.185-0.68c0.124-0.215,0.312-0.404,0.563-0.568  s0.648-0.309,1.188-0.434C438.764,117.507,439.513,117.394,440.471,117.292z M440.468,117.802c-0.906,0.133-1.468,0.225-1.683,0.275  c-0.427,0.098-0.731,0.205-0.915,0.322s-0.314,0.243-0.393,0.378s-0.117,0.278-0.117,0.431s0.044,0.3,0.132,0.442  s0.212,0.255,0.372,0.337s0.33,0.123,0.511,0.123c0.254,0,0.541-0.061,0.861-0.182c0.321-0.121,0.731-0.357,1.231-0.709V117.802z"
   id="path20" />
<path
   d="M446.864,113.08v-0.498c0.266-0.023,0.509-0.069,0.729-0.138s0.497-0.187,0.829-0.354h0.439v7.107  c0,0.328,0.008,0.527,0.023,0.598c0.039,0.148,0.105,0.252,0.199,0.311s0.275,0.088,0.545,0.088h0.252v0.492l-2.033,0.094v-0.932  c-0.391,0.355-0.757,0.607-1.099,0.756s-0.685,0.223-1.028,0.223c-0.707,0-1.294-0.284-1.761-0.853s-0.7-1.253-0.7-2.054  c0-0.57,0.124-1.093,0.372-1.567s0.575-0.837,0.981-1.087s0.852-0.375,1.336-0.375c0.371,0,0.715,0.064,1.031,0.193  s0.605,0.322,0.867,0.58v-2.584H446.864z M447.849,119.267v-2.215c0-0.316-0.06-0.575-0.179-0.776s-0.314-0.376-0.586-0.524  s-0.55-0.223-0.835-0.223c-0.34,0-0.653,0.093-0.94,0.278s-0.512,0.453-0.674,0.803s-0.243,0.772-0.243,1.269  c0,0.469,0.075,0.874,0.226,1.216s0.353,0.602,0.606,0.779s0.514,0.267,0.779,0.267c0.262,0,0.559-0.075,0.891-0.226  S447.544,119.548,447.849,119.267z"
   id="path21" />
<path
   d="M455.671,119.173l0.375,0.305c-0.285,0.34-0.562,0.609-0.829,0.809s-0.521,0.339-0.759,0.419s-0.518,0.12-0.838,0.12  c-0.574,0-1.063-0.117-1.465-0.352c-0.461-0.27-0.814-0.621-1.061-1.055s-0.369-0.945-0.369-1.535c0-0.617,0.119-1.145,0.357-1.582  s0.571-0.782,0.999-1.034s0.923-0.378,1.485-0.378c0.418,0,0.781,0.065,1.09,0.196s0.57,0.328,0.785,0.59  c0.215,0.263,0.371,0.564,0.469,0.903c0.055,0.199,0.086,0.456,0.094,0.771h-4.143c-0.012,0.192-0.018,0.335-0.018,0.429  c0,0.493,0.086,0.933,0.258,1.318c0.172,0.386,0.399,0.669,0.683,0.852s0.604,0.273,0.964,0.273c0.305,0,0.6-0.071,0.885-0.214  S455.265,119.587,455.671,119.173z M454.921,116.806c-0.059-0.359-0.142-0.625-0.249-0.797s-0.26-0.309-0.457-0.41  s-0.419-0.152-0.665-0.152s-0.477,0.051-0.691,0.152s-0.394,0.242-0.536,0.422s-0.267,0.441-0.372,0.785H454.921z M453.805,112.458  l1.702,1.119l-0.16,0.299l-1.542-0.545l-1.542,0.545l-0.16-0.299L453.805,112.458z"
   id="path22" />
<path
   d="M456.878,115.88v-0.498c0.294-0.028,0.551-0.076,0.77-0.145c0.22-0.069,0.471-0.185,0.752-0.347h0.436v0.984  c0.445-0.352,0.793-0.588,1.043-0.709c0.383-0.184,0.748-0.275,1.096-0.275c0.238,0,0.472,0.044,0.7,0.132s0.412,0.196,0.551,0.325  s0.257,0.305,0.354,0.527c0.41-0.363,0.79-0.618,1.14-0.765s0.704-0.22,1.063-0.22c0.344,0,0.647,0.071,0.911,0.214  s0.455,0.321,0.574,0.536s0.179,0.529,0.179,0.943v2.719c0,0.285,0.006,0.451,0.018,0.498c0.02,0.074,0.061,0.145,0.125,0.211  s0.137,0.113,0.219,0.141s0.232,0.041,0.454,0.041h0.187v0.492h-2.936v-0.492c0.336-0.004,0.554-0.028,0.653-0.073  s0.174-0.118,0.223-0.22s0.073-0.301,0.073-0.598v-2.584c0-0.328-0.029-0.555-0.088-0.68s-0.164-0.229-0.314-0.313  s-0.338-0.126-0.561-0.126c-0.277,0-0.57,0.074-0.875,0.223c-0.407,0.203-0.729,0.432-0.963,0.686v2.795  c0,0.27,0.013,0.446,0.038,0.53s0.068,0.154,0.129,0.211s0.131,0.096,0.211,0.117s0.274,0.032,0.583,0.032v0.492h-2.883v-0.492  h0.164c0.23,0,0.394-0.027,0.489-0.082s0.171-0.139,0.226-0.252c0.039-0.09,0.059-0.275,0.059-0.557v-2.496  c0-0.367-0.028-0.615-0.085-0.744c-0.058-0.129-0.165-0.238-0.326-0.328s-0.349-0.135-0.563-0.135c-0.254,0-0.511,0.063-0.77,0.188  c-0.383,0.184-0.736,0.424-1.057,0.721v3.012c0,0.18,0.024,0.312,0.073,0.396s0.126,0.151,0.231,0.202s0.25,0.076,0.434,0.076h0.217  v0.492h-2.941v-0.492h0.157c0.269,0,0.444-0.021,0.53-0.064c0.124-0.059,0.213-0.152,0.268-0.281  c0.031-0.07,0.047-0.252,0.047-0.545v-3.422H456.878z"
   id="path23" />
<path
   d="M468.128,115.869v-0.486c0.324-0.039,0.597-0.093,0.817-0.162s0.472-0.18,0.753-0.33h0.428v4.699  c0,0.164,0.023,0.287,0.07,0.369s0.112,0.142,0.196,0.179s0.237,0.056,0.46,0.056h0.275v0.492h-3v-0.492h0.24  c0.262,0,0.438-0.023,0.527-0.07s0.153-0.113,0.19-0.199s0.056-0.287,0.056-0.604v-3.451H468.128z M469.616,112.248  c0.188,0,0.348,0.065,0.48,0.196s0.199,0.29,0.199,0.478s-0.066,0.348-0.199,0.48s-0.293,0.199-0.48,0.199s-0.348-0.066-0.48-0.199  s-0.199-0.293-0.199-0.48s0.066-0.347,0.199-0.478S469.429,112.248,469.616,112.248z"
   id="path24" />
<path
   d="M476.952,119.05l0.375,0.305c-0.734,0.98-1.615,1.471-2.643,1.471c-0.801,0-1.477-0.285-2.027-0.855  s-0.826-1.279-0.826-2.127c0-0.566,0.128-1.075,0.384-1.526s0.611-0.802,1.066-1.052s0.978-0.375,1.567-0.375  c0.672,0,1.232,0.165,1.682,0.495s0.674,0.663,0.674,0.999c0,0.18-0.053,0.318-0.158,0.416s-0.225,0.146-0.357,0.146  c-0.07,0-0.139-0.018-0.205-0.053s-0.135-0.092-0.205-0.17c-0.031-0.035-0.088-0.145-0.17-0.328  c-0.105-0.227-0.188-0.379-0.246-0.457c-0.121-0.156-0.271-0.279-0.448-0.369s-0.376-0.135-0.595-0.135  c-0.332,0-0.64,0.092-0.923,0.275s-0.508,0.454-0.674,0.812s-0.249,0.784-0.249,1.28c0,0.77,0.205,1.381,0.615,1.834  c0.355,0.391,0.779,0.586,1.271,0.586c0.227,0,0.456-0.038,0.688-0.114s0.452-0.188,0.659-0.337  C476.36,119.666,476.608,119.425,476.952,119.05z"
   id="path25" />
<path
   d="M480.972,114.89c0.574,0,1.071,0.119,1.491,0.357s0.751,0.586,0.993,1.043s0.363,0.979,0.363,1.564  s-0.124,1.107-0.372,1.564s-0.586,0.806-1.014,1.046s-0.938,0.36-1.532,0.36c-0.945,0-1.655-0.295-2.13-0.885  s-0.712-1.283-0.712-2.08c0-0.582,0.123-1.099,0.369-1.55s0.591-0.801,1.034-1.049S480.409,114.89,480.972,114.89z M480.925,115.458  c-0.445,0-0.822,0.176-1.131,0.527c-0.391,0.438-0.586,1.074-0.586,1.91c0,0.805,0.166,1.418,0.498,1.84  c0.301,0.375,0.709,0.563,1.225,0.563c0.332,0,0.628-0.088,0.888-0.264s0.47-0.456,0.63-0.841s0.24-0.837,0.24-1.356  c0-0.508-0.086-0.963-0.258-1.365c-0.133-0.32-0.333-0.569-0.601-0.747S481.261,115.458,480.925,115.458z"
   id="path26" />
<polygon
   fill="#E94E1B"
   points="383.729,106.285 380.384,89.35 386.271,74.828 398.588,82.34 396.946,106.285 "
   id="polygon26" />
<polygon
   fill="#FFFFFF"
   points="386.184,99.577 384.266,89.865 387.642,81.537 394.705,85.845 393.764,99.577 "
   id="polygon27" />
<g
   inkscape:label="Clip"
   id="g53"
   clip-path="url(#clipPath55)"
   transform="translate(-58.133987,-5.1255023)"><polyline
     fill="#ffffff"
     points="360.379,72.499 368.574,70.422 373.775,72.86 373.046,82.959 364.654,85.141 360.532,83.792   360.379,72.658 "
     id="polyline27" /></g>
<path
   fill="#E94E1B"
   d="M365.295,76.951c0.065,0.402,0.021,0.791-0.134,1.165c-0.155,0.376-0.453,0.594-0.895,0.658  c-0.565,0.099-1.102-0.001-1.61-0.301c-0.509-0.298-0.752-0.768-0.728-1.407c-0.111-0.284-0.18-0.607-0.205-0.968  c-0.027-0.362,0.026-0.699,0.157-1.015c0.133-0.315,0.322-0.579,0.571-0.79c0.247-0.211,0.569-0.289,0.968-0.235  c0.528-0.22,1.072-0.29,1.631-0.209c0.556,0.082,1.059,0.271,1.509,0.566c0.448,0.298,0.794,0.69,1.037,1.18  c0.241,0.489,0.331,1.033,0.27,1.631c0.229,1.33-0.02,2.372-0.746,3.125c-0.729,0.753-1.628,1.211-2.693,1.371  c-1.067,0.161-2.102-0.008-3.104-0.505c-1.003-0.497-1.642-1.332-1.919-2.503l-0.09-0.783c-0.033-0.202,0.014-0.37,0.138-0.506  c0.125-0.135,0.259-0.21,0.399-0.225c0.14-0.015,0.279,0.021,0.416,0.105c0.137,0.086,0.221,0.229,0.254,0.43  c-0.037,1,0.306,1.733,1.03,2.2c0.722,0.468,1.505,0.687,2.347,0.657c0.842-0.028,1.573-0.321,2.194-0.879  c0.62-0.556,0.81-1.36,0.569-2.41c0.096-0.437,0.061-0.818-0.106-1.146c-0.169-0.326-0.409-0.585-0.723-0.777  s-0.67-0.295-1.068-0.31c-0.4-0.015-0.782,0.051-1.148,0.198c-0.159-0.046-0.319-0.042-0.482,0.012  c-0.162,0.053-0.226,0.182-0.193,0.383c0.068,0.324,0.104,0.685,0.11,1.085c0.004,0.401,0.164,0.667,0.479,0.798l0.481,0.019  l0.086-0.718c0.007-0.199,0.083-0.347,0.227-0.441c0.145-0.095,0.274-0.14,0.396-0.136c0.159,0.005,0.298,0.072,0.413,0.195  C365.247,76.588,365.302,76.75,365.295,76.951z"
   id="path27" />
<path
   fill="#F39200"
   d="M366.453,144.814l9.66,4.14l-1.379,19.08l-15.48,6.9v13.26h-7.439l-0.541-39.24L366.453,144.814z"
   id="path28" />
<path
   fill="#F39200"
   d="M401.553,158.314l18.541-0.48l-2.16,9.36l-5.7-3.6l2.819,8.94l-3.72,10.74l2.58,4.92h-10.14l1.5-6.54  l3.9-7.98l-2.221-10.08l-6.84,1.86L401.553,158.314z"
   id="path29" />
<path
   fill="#F39200"
   d="M421.652,174.935l1.5-7.14l3.36-9.96l4.92,5.16l-3.899,9.78l4.319,10.44v4.98h-8.04l2.04-5.58  L421.652,174.935z M428.553,149.014c0.08,0.4,0.05,0.791-0.09,1.17c-0.141,0.38-0.431,0.61-0.87,0.69  c-0.561,0.12-1.101,0.04-1.62-0.24c-0.52-0.279-0.779-0.74-0.779-1.38c-0.121-0.279-0.201-0.6-0.24-0.96  c-0.041-0.36,0-0.7,0.119-1.02c0.121-0.32,0.301-0.59,0.541-0.81c0.239-0.219,0.559-0.31,0.959-0.27  c0.52-0.24,1.061-0.33,1.621-0.27c0.559,0.06,1.068,0.23,1.529,0.51c0.459,0.28,0.819,0.66,1.08,1.14  c0.26,0.48,0.369,1.02,0.33,1.62c0.279,1.32,0.069,2.37-0.63,3.15c-0.7,0.78-1.581,1.271-2.64,1.47  c-1.061,0.201-2.101,0.07-3.121-0.39c-1.02-0.459-1.689-1.27-2.01-2.43l-0.119-0.78c-0.041-0.2,0-0.37,0.119-0.51  c0.12-0.14,0.25-0.219,0.391-0.24c0.139-0.02,0.279,0.01,0.42,0.09c0.14,0.081,0.229,0.22,0.27,0.42c0,1,0.369,1.721,1.11,2.16  c0.739,0.441,1.53,0.63,2.37,0.57c0.84-0.06,1.56-0.379,2.16-0.96c0.6-0.579,0.759-1.389,0.479-2.43  c0.079-0.44,0.03-0.819-0.149-1.14c-0.181-0.32-0.431-0.57-0.75-0.75c-0.321-0.18-0.682-0.27-1.08-0.27  c-0.4,0-0.78,0.081-1.141,0.24c-0.16-0.04-0.32-0.03-0.48,0.03s-0.22,0.19-0.18,0.39c0.08,0.32,0.13,0.681,0.15,1.08  c0.02,0.4,0.189,0.66,0.51,0.78h0.48l0.06-0.72c0-0.199,0.069-0.35,0.21-0.45c0.141-0.1,0.27-0.15,0.391-0.15  c0.159,0,0.3,0.06,0.42,0.18C428.492,148.654,428.553,148.814,428.553,149.014z M315.891,180.594c0.08,0.4,0.05,0.791-0.09,1.17  c-0.141,0.38-0.431,0.61-0.87,0.69c-0.561,0.12-1.101,0.04-1.62-0.24c-0.52-0.279-0.779-0.74-0.779-1.38  c-0.121-0.279-0.201-0.6-0.24-0.96c-0.041-0.36,0-0.7,0.119-1.02c0.121-0.32,0.301-0.59,0.541-0.81  c0.239-0.219,0.559-0.31,0.959-0.27c0.52-0.24,1.061-0.33,1.621-0.27c0.559,0.06,1.068,0.23,1.529,0.51  c0.459,0.28,0.819,0.66,1.08,1.14c0.26,0.48,0.369,1.02,0.33,1.62c0.279,1.32,0.069,2.37-0.63,3.15c-0.7,0.78-1.581,1.271-2.64,1.47  c-1.061,0.201-2.101,0.07-3.121-0.39c-1.02-0.459-1.689-1.27-2.01-2.43l-0.119-0.78c-0.041-0.2,0-0.37,0.119-0.51  c0.12-0.14,0.25-0.219,0.391-0.24c0.139-0.02,0.279,0.01,0.42,0.09c0.14,0.081,0.229,0.22,0.27,0.42c0,1,0.369,1.721,1.11,2.16  c0.739,0.441,1.53,0.63,2.37,0.57c0.84-0.06,1.56-0.379,2.16-0.96c0.6-0.579,0.759-1.389,0.479-2.43  c0.079-0.44,0.03-0.819-0.149-1.14c-0.181-0.32-0.431-0.57-0.75-0.75c-0.321-0.18-0.682-0.27-1.08-0.27  c-0.4,0-0.78,0.081-1.141,0.24c-0.16-0.04-0.32-0.03-0.48,0.03s-0.22,0.19-0.18,0.39c0.08,0.32,0.13,0.681,0.15,1.08  c0.02,0.4,0.189,0.66,0.51,0.78h0.48l0.06-0.72c0-0.199,0.069-0.35,0.21-0.45c0.141-0.1,0.27-0.15,0.391-0.15  c0.159,0,0.3,0.06,0.42,0.18C315.83,180.234,315.891,180.394,315.891,180.594z"
   id="path30" />
<polygon
   fill="#F39200"
   points="381.503,188.194 378.158,171.259 384.045,156.737 396.362,164.25 394.721,188.194 "
   id="polygon30" />
<polygon
   fill="#FFFFFF"
   points="383.958,181.486 382.04,171.774 385.416,163.446 392.479,167.754 391.538,181.486 "
   id="polygon31" />
<polyline
   fill="#FFFFFF"
   points="358.153,154.408 366.349,152.332 371.55,154.77 370.82,164.868 362.429,167.05 358.307,165.701   358.153,154.567 "
   id="polyline31" />
<path
   fill="#F39200"
   d="M363.069,158.86c0.065,0.402,0.021,0.791-0.134,1.165c-0.155,0.376-0.453,0.594-0.895,0.658  c-0.565,0.099-1.102-0.001-1.61-0.301c-0.509-0.298-0.752-0.768-0.728-1.407c-0.111-0.284-0.18-0.607-0.205-0.968  c-0.027-0.362,0.026-0.699,0.157-1.015c0.133-0.315,0.322-0.579,0.571-0.79c0.247-0.211,0.569-0.289,0.968-0.235  c0.528-0.22,1.072-0.29,1.631-0.209c0.556,0.082,1.059,0.271,1.509,0.566c0.448,0.298,0.794,0.69,1.037,1.18  c0.241,0.489,0.331,1.033,0.27,1.631c0.229,1.33-0.02,2.372-0.746,3.125c-0.729,0.753-1.628,1.211-2.693,1.371  c-1.067,0.161-2.102-0.008-3.104-0.505c-1.003-0.497-1.642-1.332-1.919-2.503l-0.09-0.783c-0.033-0.202,0.014-0.37,0.138-0.506  c0.125-0.135,0.259-0.21,0.399-0.225c0.14-0.015,0.279,0.021,0.416,0.105c0.137,0.086,0.221,0.229,0.254,0.43  c-0.037,1,0.306,1.733,1.03,2.2c0.722,0.468,1.505,0.687,2.347,0.657c0.842-0.028,1.573-0.321,2.194-0.879  c0.62-0.556,0.81-1.36,0.569-2.41c0.096-0.437,0.061-0.818-0.106-1.146c-0.169-0.326-0.409-0.585-0.723-0.777  s-0.67-0.295-1.068-0.31c-0.4-0.015-0.782,0.051-1.148,0.198c-0.159-0.046-0.319-0.042-0.482,0.012  c-0.162,0.053-0.226,0.182-0.193,0.383c0.068,0.324,0.104,0.685,0.11,1.085c0.004,0.401,0.164,0.667,0.479,0.798l0.481,0.019  l0.086-0.718c0.007-0.199,0.083-0.347,0.227-0.441c0.145-0.095,0.274-0.14,0.396-0.136c0.159,0.005,0.298,0.072,0.413,0.195  C363.021,158.498,363.076,158.66,363.069,158.86z"
   id="path31" />
<polyline
   points="296.506,82.062 304.701,79.826 308.906,81.798 309.172,92.363 300.781,94.545 296.658,93.195 296.506,82.062 "
   id="polyline32"
   transform="translate(-31.15834,-34.475475)" />
<line
   fill="#E94E1B"
   x1="315.209"
   y1="81.143"
   x2="315.209"
   y2="71.126"
   id="line32" />
<line
   fill="#E94E1B"
   x1="311.897"
   y1="69.553"
   x2="315.299"
   y2="71.142"
   id="line33" />
<line
   fill="#E94E1B"
   x1="311.897"
   y1="69.553"
   x2="311.897"
   y2="80.09"
   id="line34" />
<line
   fill="#E94E1B"
   x1="311.897"
   y1="80.09"
   x2="315.209"
   y2="81.143"
   id="line35" />
<line
   fill="#E94E1B"
   x1="316.02"
   y1="81.439"
   x2="324.411"
   y2="79.257"
   id="line36" />
<line
   fill="#E94E1B"
   x1="324.411"
   y1="79.257"
   x2="324.146"
   y2="68.692"
   id="line37" />
<line
   fill="#E94E1B"
   x1="324.146"
   y1="68.692"
   x2="319.939"
   y2="66.721"
   id="line38" />
<line
   fill="#E94E1B"
   x1="324.146"
   y1="68.692"
   x2="316.75"
   y2="70.422"
   id="line39" />
<line
   fill="#E94E1B"
   x1="320.425"
   y1="67.838"
   x2="312.229"
   y2="70.074"
   id="line40" />
<line
   fill="#E94E1B"
   x1="309.936"
   y1="68.692"
   x2="314.167"
   y2="70.422"
   id="line41" />
<line
   fill="#e94e1b"
   x1="314.211"
   y1="80.031487"
   x2="318.44199"
   y2="81.761482"
   id="line42" />
<line
   fill="#E94E1B"
   x1="314.211"
   y1="81.176"
   x2="314.167"
   y2="70.422"
   id="line43" />
<line
   fill="#E94E1B"
   x1="314.167"
   y1="70.422"
   x2="314.123"
   y2="59.669"
   id="line44" />
<line
   fill="#E94E1B"
   x1="314.167"
   y1="70.422"
   x2="322.882"
   y2="68.684"
   id="line45" />
<line
   fill="#E94E1B"
   x1="322.882"
   y1="68.684"
   x2="318.131"
   y2="66.457"
   id="line46" />
<line
   fill="#E94E1B"
   x1="318.131"
   y1="66.457"
   x2="309.936"
   y2="68.533"
   id="line47" />

<line
   fill="#E94E1B"
   x1="314.211"
   y1="81.176"
   x2="310.089"
   y2="79.826"
   id="line49" />
<line
   fill="none"
   x1="310.089"
   y1="79.826"
   x2="309.936"
   y2="68.533"
   id="line50" />
<line
   fill="none"
   x1="337.083"
   y1="76.648"
   x2="336.93"
   y2="65.355"
   id="line51" />
<path
   d="m 323.55718,82.85776 c 0.065,0.402 0.021,0.791 -0.134,1.165 -0.155,0.376 -0.453,0.594 -0.895,0.658 -0.565,0.099 -1.102,-0.001 -1.61,-0.301 -0.509,-0.298 -0.752,-0.768 -0.728,-1.407 -0.111,-0.284 -0.18,-0.607 -0.205,-0.968 -0.027,-0.362 0.026,-0.699 0.157,-1.015 0.133,-0.315 0.322,-0.579 0.571,-0.79 0.247,-0.211 0.569,-0.289 0.968,-0.235 0.528,-0.22 1.072,-0.29 1.631,-0.209 0.556,0.082 1.059,0.271 1.509,0.566 0.448,0.298 0.794,0.69 1.037,1.18 0.241,0.489 0.331,1.033 0.27,1.631 0.229,1.33 -0.02,2.372 -0.746,3.125002 -0.729,0.753 -1.628,1.211 -2.693,1.371 -1.067,0.161 -2.102,-0.008 -3.104,-0.505 -1.003,-0.497 -1.642,-1.332002 -1.919,-2.503002 l -0.09,-0.783 c -0.033,-0.202 0.014,-0.37 0.138,-0.506 0.125,-0.135 0.259,-0.21 0.399,-0.225 0.14,-0.015 0.279,0.021 0.416,0.105 0.137,0.086 0.221,0.229 0.254,0.43 -0.037,1 0.306,1.733 1.03,2.2 0.722,0.468002 1.505,0.687002 2.347,0.657002 0.842,-0.028 1.573,-0.321002 2.194,-0.879002 0.62,-0.556 0.81,-1.36 0.569,-2.41 0.096,-0.437 0.061,-0.818 -0.106,-1.146 -0.169,-0.326 -0.409,-0.585 -0.723,-0.777 -0.314,-0.192 -0.67,-0.295 -1.068,-0.31 -0.4,-0.015 -0.782,0.051 -1.148,0.198 -0.159,-0.046 -0.319,-0.042 -0.482,0.012 -0.162,0.053 -0.226,0.182 -0.193,0.383 0.068,0.324 0.104,0.685 0.11,1.085 0.004,0.401 0.164,0.667 0.479,0.798 l 0.481,0.019 0.086,-0.718 c 0.007,-0.199 0.083,-0.347 0.227,-0.441 0.145,-0.095 0.274,-0.14 0.396,-0.136 0.159,0.005 0.298,0.072 0.413,0.195 0.114,0.124 0.169,0.286 0.162,0.486 z"
   id="path51" />
</svg>
